<svg xmlns="http://www.w3.org/2000/svg" width="167.789" height="94.752" viewBox="0 0 167.789 94.752">
    <g data-name="Grupo 4022">
        <g data-name="Grupo 4023">
            <path data-name="Trazado 7243" d="m15.91 89.137-4.4-.656-.1.3a4.978 4.978 0 0 1-1.61 2.475 3.724 3.724 0 0 1-2.342.82 2.857 2.857 0 0 1-2.242-1.008A4.33 4.33 0 0 1 4.3 88.1a9.678 9.678 0 0 1 .751-3.666A5.745 5.745 0 0 1 6.992 81.8a4.484 4.484 0 0 1 2.585-.832 2.982 2.982 0 0 1 1.948.594 3.279 3.279 0 0 1 .979 1.973l.063.332 4.175-.4-.042-.377a6.515 6.515 0 0 0-2.2-4.34 7.234 7.234 0 0 0-4.851-1.594 9.207 9.207 0 0 0-8.394 5.252A12.411 12.411 0 0 0 0 87.974a8.149 8.149 0 0 0 1.915 5.8 6.987 6.987 0 0 0 5.3 2.028 8.7 8.7 0 0 0 5.209-1.61 9.624 9.624 0 0 0 3.327-4.63z" transform="translate(0 -19.87)" style="fill:#0901ac"/>
            <path data-name="Trazado 7244" d="M30.331 77.554 19.982 95.6h4.571l2.107-3.824h6.416l.587 3.824h4.179l-2.97-18.046zm2.193 10.6h-4.165l3.358-5.52z" transform="translate(-5.146 -19.972)" style="fill:#0901ac"/>
            <path data-name="Trazado 7245" d="M59.9 86.586a14.635 14.635 0 0 0-3.967-2.165 11.233 11.233 0 0 1-2.507-1.3 1.159 1.159 0 0 1-.451-.941 1.252 1.252 0 0 1 .5-1.022 3.1 3.1 0 0 1 1.9-.437 3.143 3.143 0 0 1 2.058.572 2.389 2.389 0 0 1 .78 1.657l.037.347 4.19-.186-.027-.379a5.621 5.621 0 0 0-1.994-4.058 7.589 7.589 0 0 0-5.021-1.516 7.116 7.116 0 0 0-4.893 1.535 5.043 5.043 0 0 0-1.727 3.9 4.534 4.534 0 0 0 2.193 4.016 24.466 24.466 0 0 0 3.039 1.481 11.692 11.692 0 0 1 2.406 1.21 1.256 1.256 0 0 1 .51 1.012 1.508 1.508 0 0 1-.649 1.219 3.839 3.839 0 0 1-2.331.546 3.423 3.423 0 0 1-2.64-.793 3.306 3.306 0 0 1-.473-1.957l-.016-.373-4.153.214-.01.343a6.661 6.661 0 0 0 .675 3.248 5.037 5.037 0 0 0 2.518 2.253 9.868 9.868 0 0 0 4.073.782 7.86 7.86 0 0 0 5.364-1.715 5.423 5.423 0 0 0 1.962-4.192 4.384 4.384 0 0 0-1.345-3.3" transform="translate(-12.014 -19.87)" style="fill:#0901ac"/>
            <path data-name="Trazado 7246" d="M76.2 77.554 65.85 95.6h4.571l2.107-3.824h6.416l.587 3.824h4.179l-2.97-18.046zm2.193 10.6h-4.166l3.358-5.52z" transform="translate(-16.958 -19.972)" style="fill:#0901ac"/>
            <path data-name="Trazado 7247" d="M99.349 81.156a3.107 3.107 0 0 1 1.9-.437 3.141 3.141 0 0 1 2.057.572 2.387 2.387 0 0 1 .781 1.656l.037.347 4.189-.186-.027-.38a5.617 5.617 0 0 0-1.994-4.058 7.591 7.591 0 0 0-5.021-1.516 7.114 7.114 0 0 0-4.893 1.535 5.038 5.038 0 0 0-1.727 3.9 4.536 4.536 0 0 0 2.193 4.016 24.356 24.356 0 0 0 3.031 1.483 11.584 11.584 0 0 1 2.406 1.209 1.257 1.257 0 0 1 .511 1.011 1.51 1.51 0 0 1-.649 1.22 3.842 3.842 0 0 1-2.331.545 3.424 3.424 0 0 1-2.64-.792 3.311 3.311 0 0 1-.472-1.957l-.016-.373-4.153.214-.009.343a6.651 6.651 0 0 0 .675 3.248 5.032 5.032 0 0 0 2.518 2.253 9.869 9.869 0 0 0 4.074.783 7.856 7.856 0 0 0 5.363-1.716 5.422 5.422 0 0 0 1.963-4.191 4.384 4.384 0 0 0-1.346-3.3 14.66 14.66 0 0 0-3.966-2.165 11.192 11.192 0 0 1-2.507-1.3 1.158 1.158 0 0 1-.452-.941 1.252 1.252 0 0 1 .5-1.022" transform="translate(-23.827 -19.87)" style="fill:#0901ac"/>
            <path data-name="Trazado 7248" d="M130.25 89.728a29.931 29.931 0 0 0-1.284 2.618q-.088-.774-.226-1.8l-.906-6.565h-4.19l2.272 12.86c-.6 1.352-1.347 2.036-2.212 2.036a4.108 4.108 0 0 1-1.109-.162l-.419-.12-.388 3.275.307.085a9.7 9.7 0 0 0 2.553.391 4.579 4.579 0 0 0 2.051-.428 4.412 4.412 0 0 0 1.463-1.172 19.453 19.453 0 0 0 1.561-2.446l8.169-14.319h-4.5z" transform="translate(-31.364 -21.626)" style="fill:#0901ac"/>
            <path data-name="Trazado 7249" d="M165.947 77.554 160.5 88.587l-.49-11.034h-5.8L150.385 95.6h4.021l2.249-11.664.512 11.664h4.012l5.521-11.441-2.753 11.441h4.064l3.832-18.047z" transform="translate(-38.728 -19.972)" style="fill:#0901ac"/>
            <path data-name="Trazado 7250" d="M186.282 77.554 175.933 95.6h4.567l2.107-3.824h6.417l.587 3.824h4.179l-2.971-18.047zm2.193 10.6h-4.165l3.359-5.52z" transform="translate(-45.308 -19.972)" style="fill:#0901ac"/>
            <path data-name="Trazado 7251" d="M215.623 89.3a8.459 8.459 0 0 0-.849-1.171 6.392 6.392 0 0 0 3.556-1.776 5.5 5.5 0 0 0 1.44-3.9 5.2 5.2 0 0 0-.745-2.83 3.921 3.921 0 0 0-1.994-1.644 9.764 9.764 0 0 0-3.257-.429h-8.094l-3.832 18.05h4.374l1.52-7.166h1.172a3.025 3.025 0 0 1 1.584.276 5.015 5.015 0 0 1 1.452 2.1c.9 2.05 1.512 3.575 1.818 4.531l.082.259h4.7l-.2-.509a43.232 43.232 0 0 0-2.721-5.792m-.664-5.468a2.746 2.746 0 0 1-1.317.944 13.591 13.591 0 0 1-3.735.321h-1.457l.826-3.909h3.673a4.323 4.323 0 0 1 1.878.23 1.177 1.177 0 0 1 .6 1.1 2.172 2.172 0 0 1-.466 1.315" transform="translate(-51.981 -19.972)" style="fill:#0901ac"/>
            <path data-name="Trazado 7252" d="M43.91 64.85c-.258.164 14.864-7.33 41.333-.814s27.894 6.719 38.075 6.007 28.4-9.57 28.4-9.57a74.793 74.793 0 0 1-32.371 6.927c-17.714-.509-32.373-7.432-46.626-7.941S48.694 61.8 43.91 64.85" transform="translate(-11.307 -15.296)" style="fill:#0901ac"/>
            <path data-name="Rectángulo 2260" transform="translate(86.506 36.147)" style="fill:#ffb12b" d="M0 0h3.749v5.488H0z"/>
            <path data-name="Rectángulo 2261" transform="translate(96.722 36.147)" style="fill:#ffb12b" d="M0 0h3.749v5.488H0z"/>
            <path data-name="Trazado 7253" d="M143.743 44.734c0 .735-.015 1.463-.052 2.183a73.435 73.435 0 0 1-7.3 1.76v-8.5h3.6l-7.425-4.633-4.782-7.714h-29.94l-8.152 6.831V37.9h4.291v7.061c-6.266-1.507-12.266-2.807-18.3-3.022a84.694 84.694 0 0 0-3.363-.067 68.765 68.765 0 0 0-17.225 1.96 44.328 44.328 0 0 1 88.651.906" transform="translate(-14.188)" style="fill:#f36c2c"/>
            <path data-name="Trazado 7254" d="M155.306 62.046h-4.227v-7.554a2.113 2.113 0 0 1 4.227 0z" transform="translate(-38.907 -13.489)" style="fill:#ffb12b"/>
            <path data-name="Trazado 7255" d="M98.743 12.353s-.071-.125-.2-.33a.772.772 0 0 1 .2.33" transform="translate(-25.376 -3.096)" style="fill:#0901ac"/>
            <path data-name="Trazado 7256" d="M73.525 14.543s-3.032-4.44-9.04.282c0 0 1.513-8.291 8.3-3.588L75 13.705a5.934 5.934 0 0 0-5.96-4.978s4.647-3.747 6.46 2.853a6.583 6.583 0 0 1 .529-4.629A6.881 6.881 0 0 1 81.9 3.7a16.233 16.233 0 0 0-4.538 7.114 12.788 12.788 0 0 0-.171 2.2l.352-.907C83.49 1.384 88.69 8.232 89.768 9.881c-.45-.476-1.859-1.221-6.19-.477a8.287 8.287 0 0 0-3.47 1.92 12.089 12.089 0 0 0-1.922 2.33c8.668-7.2 10.828 4.07 10.828 4.07-2.278-3.273-5.705-3.735-8.422-3.447-.427.046-.836.11-1.221.185a12.4 12.4 0 0 0-1.311 1.2c2.394-.575 6.583-.514 7.071 6.731 0 0-4.525-4.776-7.472-5.916.644.584 1.388 2.321.455 7.491 0 0-2.036-.984-1.3-6.677-4.314 19.365-1.53 28.22-1.48 28.509l-5.4-.359c-.05-.293-2.488-7.239 5.341-28.4l-6.065 4.793s-.065-4.094 5.259-5.745a10.759 10.759 0 0 0-8.966 3.931s-.011-8.53 8.019-5.474" transform="translate(-16.607 -.954)" style="fill:#0901ac"/>
            <path data-name="Trazado 7257" d="M85.621 24.91c-7.032 14.818-2.5 26.051-2.476 26.3l-4.517-.71c-.019-.254-1.252-10.775 5.9-25.875" transform="translate(-20.225 -6.341)" style="fill:#0901ac"/>
            <path data-name="Trazado 7258" d="M78.225 13.149s.1-.045.275-.108a.574.574 0 0 0-.275.108" transform="translate(-20.145 -3.358)" style="fill:#0901ac"/>
            <path data-name="Trazado 7259" d="M86.22 22.936s3.883-1.337 5.788 4.2c0 0 2.562-5.7-3.885-5.874l-2.507.506a4.657 4.657 0 0 1 6.027-.357s-1.433-4.339-5.443-1.152a4.584 4.584 0 0 0 1.637-3.04 5.487 5.487 0 0 0-2.442-4.582 11.776 11.776 0 0 1-.08 6.333 8.869 8.869 0 0 1-.832 1.41l.159-.707c.706-9.153-5.625-7.324-7.036-6.806.5-.088 1.738.09 4.25 2.472a6.566 6.566 0 0 1 1.444 2.712 8.872 8.872 0 0 1 .258 2.268c-2.581-8.227-8.819-2.365-8.819-2.365a7.12 7.12 0 0 1 6.979 1.669c.26.218.5.44.719.656a9.254 9.254 0 0 1 .342 1.314c-1.318-1.417-4.082-3.248-7.5.924 0 0 5-.875 7.417-.251-.67.067-1.9.787-3.505 4.335 0 0 1.751.312 3.707-3.466 0 0-.632 10.909 1.115.531l1.911 5.609s1.8-2.452-.976-5.826c0 0 3.854 2.152 4.176 6.38 0 0 3.66-5.162-2.9-6.892" transform="translate(-19.246 -3.185)" style="fill:#0901ac"/>
            <path data-name="Trazado 7260" d="m2.522 121.55 2.3-.377a2.3 2.3 0 0 0 .763 1.068 2.171 2.171 0 0 0 1.243.313 2.077 2.077 0 0 0 1.3-.377.765.765 0 0 0 .339-.626.651.651 0 0 0-.167-.451 2.961 2.961 0 0 0-.986-.463 10.5 10.5 0 0 1-2.668-1.166 2.166 2.166 0 0 1-.8-1.749 2.542 2.542 0 0 1 .78-1.86 4.362 4.362 0 0 1 3.223-1.088 4.3 4.3 0 0 1 2.569.642 2.813 2.813 0 0 1 1.1 1.74l-2.2.394a1.4 1.4 0 0 0-.563-.746 2.345 2.345 0 0 0-1.276-.334 1.748 1.748 0 0 0-1.072.258.743.743 0 0 0-.328.592.662.662 0 0 0 .332.565 7.608 7.608 0 0 0 1.333.48 6.939 6.939 0 0 1 2.326 1.035 2.183 2.183 0 0 1 .829 1.714 2.933 2.933 0 0 1-1.053 2.246 4.266 4.266 0 0 1-2.966.952 5.106 5.106 0 0 1-2.945-.725 3.577 3.577 0 0 1-1.412-2.036" transform="translate(-.649 -29.559)" style="fill:#f36c2c"/>
            <path data-name="Trazado 7261" d="M23.154 120.308h-5.966a4.95 4.95 0 0 0-.008.222 2.11 2.11 0 0 0 .5 1.466 1.584 1.584 0 0 0 1.223.557 2.034 2.034 0 0 0 1.848-1.269l2.129.369a4.6 4.6 0 0 1-1.661 1.993 4.249 4.249 0 0 1-2.334.665A3.81 3.81 0 0 1 16 123.15a4.262 4.262 0 0 1-1.11-3.073 5.725 5.725 0 0 1 1-3.326 4.465 4.465 0 0 1 3.9-1.971 3.326 3.326 0 0 1 2.568 1.033 4.11 4.11 0 0 1 .953 2.893 7.082 7.082 0 0 1-.166 1.6m-2.005-1.5c.006-.108.009-.192.009-.249a2.261 2.261 0 0 0-.44-1.517 1.482 1.482 0 0 0-1.177-.506 1.838 1.838 0 0 0-1.322.575 3.1 3.1 0 0 0-.791 1.7z" transform="translate(-3.835 -29.559)" style="fill:#f36c2c"/>
            <path data-name="Trazado 7262" d="M27.688 114.993h2.221l-.356 1.766q1.243-1.98 2.693-1.98a2.691 2.691 0 0 1 1.1.265l-.911 2.014a1.975 1.975 0 0 0-.688-.12 2.072 2.072 0 0 0-1.247.48 3.187 3.187 0 0 0-.99 1.281 13.075 13.075 0 0 0-.7 2.541l-.58 2.855h-2.382z" transform="translate(-6.657 -29.559)" style="fill:#f36c2c"/>
            <path data-name="Trazado 7263" d="M38.361 124.17h-2.047l-1.765-9.1h2.337l.621 3.969q.256 1.612.307 2.143.066-.146.575-1.11t.626-1.162l2.187-3.84h2.569z" transform="translate(-8.897 -29.633)" style="fill:#f36c2c"/>
            <path data-name="Trazado 7264" d="M47.143 113.866h2.378l-1.84 9.1H45.3zm.7-3.463h2.378l-.447 2.229h-2.383z" transform="translate(-11.667 -28.432)" style="fill:#f36c2c"/>
            <path data-name="Trazado 7265" d="m56.571 120.668 2.311.386a5.04 5.04 0 0 1-1.69 2.426 4.234 4.234 0 0 1-2.593.832 3.51 3.51 0 0 1-2.669-1.037 3.976 3.976 0 0 1-.986-2.855 6.718 6.718 0 0 1 .6-2.8 4.68 4.68 0 0 1 1.8-2.079 4.837 4.837 0 0 1 2.636-.759 3.564 3.564 0 0 1 2.486.84 3.23 3.23 0 0 1 1.044 2.212l-2.262.249a1.794 1.794 0 0 0-.451-1.123 1.323 1.323 0 0 0-.965-.359 1.9 1.9 0 0 0-1.284.531 3.377 3.377 0 0 0-.916 1.59 6.876 6.876 0 0 0-.319 1.985 1.835 1.835 0 0 0 .38 1.243 1.216 1.216 0 0 0 .953.437 1.738 1.738 0 0 0 1.1-.429 2.786 2.786 0 0 0 .829-1.286" transform="translate(-13.119 -29.559)" style="fill:#f36c2c"/>
            <path data-name="Trazado 7266" d="M63.874 113.866h2.378l-1.841 9.1h-2.378zm.7-3.463h2.378l-.448 2.229h-2.383z" transform="translate(-15.975 -28.432)" style="fill:#f36c2c"/>
            <path data-name="Trazado 7267" d="M67.687 120.316a5.732 5.732 0 0 1 1.38-4.033 4.684 4.684 0 0 1 3.625-1.5 3.809 3.809 0 0 1 4.136 4.1 5.721 5.721 0 0 1-1.368 3.817 4.971 4.971 0 0 1-5.867 1.1 3.306 3.306 0 0 1-1.434-1.457 4.457 4.457 0 0 1-.472-2.023m6.779-1.757a1.973 1.973 0 0 0-.493-1.4 1.669 1.669 0 0 0-1.273-.527 2.088 2.088 0 0 0-1.367.493 3.177 3.177 0 0 0-.929 1.431 5.233 5.233 0 0 0-.331 1.727 2.238 2.238 0 0 0 .514 1.552 1.661 1.661 0 0 0 1.293.575 2 2 0 0 0 1.641-.866 4.747 4.747 0 0 0 .944-2.983" transform="translate(-17.431 -29.559)" style="fill:#f36c2c"/>
            <path data-name="Trazado 7268" d="m79.6 121.55 2.3-.377a2.3 2.3 0 0 0 .762 1.068 2.171 2.171 0 0 0 1.243.313 2.08 2.08 0 0 0 1.3-.377.767.767 0 0 0 .339-.626.658.658 0 0 0-.174-.446 2.976 2.976 0 0 0-.987-.463 10.52 10.52 0 0 1-2.668-1.166 2.168 2.168 0 0 1-.8-1.749 2.541 2.541 0 0 1 .779-1.86 4.365 4.365 0 0 1 3.224-1.088 4.3 4.3 0 0 1 2.57.642 2.815 2.815 0 0 1 1.1 1.74l-2.2.394a1.4 1.4 0 0 0-.563-.746 2.347 2.347 0 0 0-1.276-.334 1.75 1.75 0 0 0-1.073.258.743.743 0 0 0-.328.592.663.663 0 0 0 .332.565 7.627 7.627 0 0 0 1.334.48 6.945 6.945 0 0 1 2.329 1.029 2.185 2.185 0 0 1 .828 1.714 2.933 2.933 0 0 1-1.053 2.246 4.267 4.267 0 0 1-2.966.952 5.107 5.107 0 0 1-2.946-.725 3.583 3.583 0 0 1-1.406-2.036" transform="translate(-20.5 -29.559)" style="fill:#f36c2c"/>
            <path data-name="Trazado 7269" d="M98.586 113.866h2.378l-1.84 9.1h-2.378zm.7-3.463h2.378l-.447 2.229h-2.383z" transform="translate(-24.915 -28.432)" style="fill:#f36c2c"/>
            <path data-name="Trazado 7270" d="M103.815 114.993h2.253l-.232 1.184a6.159 6.159 0 0 1 1.579-1.076 3.786 3.786 0 0 1 1.545-.321 2.276 2.276 0 0 1 1.711.642 2.342 2.342 0 0 1 .626 1.706 11.177 11.177 0 0 1-.273 1.817l-1.036 5.152h-2.378l1.045-5.169a11.7 11.7 0 0 0 .232-1.38.934.934 0 0 0-1.019-1.011 2.061 2.061 0 0 0-1.16.454 3.141 3.141 0 0 0-1 1.2 10.434 10.434 0 0 0-.6 2.169l-.754 3.737h-2.379z" transform="translate(-26.261 -29.559)" style="fill:#f36c2c"/>
            <path data-name="Trazado 7271" d="M116.466 114.993h2.234l-.223 1.106a3.87 3.87 0 0 1 2.751-1.319 2.406 2.406 0 0 1 1.532.428 1.932 1.932 0 0 1 .688 1.183 3.58 3.58 0 0 1 1.31-1.149 3.664 3.664 0 0 1 1.773-.463 2.232 2.232 0 0 1 1.641.583 2.076 2.076 0 0 1 .588 1.542 9.742 9.742 0 0 1-.232 1.63L127.4 124.1h-2.378l1.128-5.563q.206-1.047.206-1.184a.8.8 0 0 0-.22-.6.9.9 0 0 0-.658-.219 1.961 1.961 0 0 0-1.583.969 6.688 6.688 0 0 0-.862 2.46l-.833 4.137h-2.378l1.11-5.5a8.35 8.35 0 0 0 .19-1.234.792.792 0 0 0-.235-.592.9.9 0 0 0-.651-.232 1.613 1.613 0 0 0-.8.24 2.4 2.4 0 0 0-.725.66 3.907 3.907 0 0 0-.535 1.08q-.1.308-.324 1.4L117 124.1h-2.379z" transform="translate(-29.519 -29.559)" style="fill:#f36c2c"/>
            <path data-name="Trazado 7272" d="M134.354 120.316a5.732 5.732 0 0 1 1.38-4.033 4.685 4.685 0 0 1 3.625-1.5 3.809 3.809 0 0 1 4.136 4.1 5.721 5.721 0 0 1-1.368 3.822 4.97 4.97 0 0 1-5.866 1.1 3.3 3.3 0 0 1-1.434-1.457 4.448 4.448 0 0 1-.473-2.023m6.779-1.757a1.973 1.973 0 0 0-.493-1.4 1.668 1.668 0 0 0-1.273-.527 2.088 2.088 0 0 0-1.367.493 3.17 3.17 0 0 0-.928 1.431 5.213 5.213 0 0 0-.331 1.727 2.241 2.241 0 0 0 .513 1.552 1.661 1.661 0 0 0 1.293.575 2 2 0 0 0 1.641-.866 4.747 4.747 0 0 0 .944-2.983" transform="translate(-34.6 -29.559)" style="fill:#f36c2c"/>
            <path data-name="Trazado 7273" d="m146.593 122.969 2.536-12.566h2.386l-.854 4.2a4.869 4.869 0 0 1 1.223-.733 3.418 3.418 0 0 1 1.238-.218 2.806 2.806 0 0 1 2.23.964 4.165 4.165 0 0 1 .836 2.807 7.5 7.5 0 0 1-.394 2.413 5.357 5.357 0 0 1-1.052 1.9 4.648 4.648 0 0 1-1.384 1.088 3.414 3.414 0 0 1-1.521.356 2.929 2.929 0 0 1-2.776-1.714l-.306 1.5zm3.207-3.712a2.186 2.186 0 0 0 .5 1.492 1.524 1.524 0 0 0 1.181.574 1.773 1.773 0 0 0 1.139-.445 3.265 3.265 0 0 0 .9-1.423 5.671 5.671 0 0 0 .36-1.972 2.228 2.228 0 0 0-.485-1.521 1.5 1.5 0 0 0-1.172-.554 1.893 1.893 0 0 0-1.542.858 4.826 4.826 0 0 0-.886 2.991" transform="translate(-37.752 -28.432)" style="fill:#f36c2c"/>
            <path data-name="Trazado 7274" d="M161.319 113.866h2.381l-1.84 9.1h-2.378zm.7-3.463h2.378l-.447 2.229h-2.379z" transform="translate(-41.07 -28.432)" style="fill:#f36c2c"/>
            <path data-name="Trazado 7275" d="m164.641 122.969 2.544-12.566h2.369l-2.536 12.566z" transform="translate(-42.4 -28.432)" style="fill:#f36c2c"/>
            <path data-name="Trazado 7276" d="M171.688 113.866h2.378l-1.84 9.1h-2.378zm.7-3.463h2.378l-.447 2.229h-2.379z" transform="translate(-43.741 -28.432)" style="fill:#f36c2c"/>
            <path data-name="Trazado 7277" d="m178.418 117.574-2.32-.206a3.6 3.6 0 0 1 1.388-1.9 4.527 4.527 0 0 1 2.622-.685 3.752 3.752 0 0 1 2.511.707 2.2 2.2 0 0 1 .812 1.727 5.762 5.762 0 0 1-.071.875q-.07.462-.493 2.434a12.927 12.927 0 0 0-.347 2.281 4.833 4.833 0 0 0 .2 1.294h-2.311a4.857 4.857 0 0 1-.174-1.029 3.637 3.637 0 0 1-1.2.921 3.162 3.162 0 0 1-1.366.322 2.4 2.4 0 0 1-1.807-.742 2.638 2.638 0 0 1-.713-1.907 2.81 2.81 0 0 1 .783-2.083 4.468 4.468 0 0 1 2.8-.944 10.789 10.789 0 0 0 2.27-.35 3.13 3.13 0 0 0 .149-.823.837.837 0 0 0-.307-.659 1.353 1.353 0 0 0-.912-.267 1.669 1.669 0 0 0-1.007.27 1.345 1.345 0 0 0-.5.768m2.262 2.279a4.666 4.666 0 0 1-.572.111 5.317 5.317 0 0 0-2.337.651 1.006 1.006 0 0 0-.389.832.979.979 0 0 0 .3.725 1.068 1.068 0 0 0 .787.3 2.024 2.024 0 0 0 1.015-.27 1.812 1.812 0 0 0 .713-.693 4.844 4.844 0 0 0 .418-1.325z" transform="translate(-45.104 -29.559)" style="fill:#f36c2c"/>
            <path data-name="Trazado 7278" d="M188.24 114.993h2.221l-.356 1.766q1.243-1.98 2.693-1.98a2.691 2.691 0 0 1 1.1.265l-.911 2.014a1.976 1.976 0 0 0-.688-.12 2.074 2.074 0 0 0-1.247.48 3.192 3.192 0 0 0-.99 1.281 13.066 13.066 0 0 0-.7 2.541l-.58 2.855H186.4z" transform="translate(-48.003 -29.559)" style="fill:#f36c2c"/>
            <path data-name="Trazado 7279" d="M196.149 113.866h2.378l-1.84 9.1h-2.378zm.7-3.463h2.378l-.447 2.229h-2.38z" transform="translate(-50.04 -28.432)" style="fill:#f36c2c"/>
            <path data-name="Trazado 7280" d="M199.962 120.316a5.732 5.732 0 0 1 1.38-4.033 4.685 4.685 0 0 1 3.625-1.5 3.809 3.809 0 0 1 4.136 4.1 5.721 5.721 0 0 1-1.368 3.822 4.97 4.97 0 0 1-5.866 1.1 3.3 3.3 0 0 1-1.434-1.457 4.448 4.448 0 0 1-.473-2.023m6.779-1.757a1.973 1.973 0 0 0-.493-1.4 1.668 1.668 0 0 0-1.273-.527 2.088 2.088 0 0 0-1.367.493 3.17 3.17 0 0 0-.928 1.431 5.213 5.213 0 0 0-.331 1.727 2.241 2.241 0 0 0 .513 1.552 1.661 1.661 0 0 0 1.293.575 2 2 0 0 0 1.641-.866 4.747 4.747 0 0 0 .944-2.983" transform="translate(-51.496 -29.559)" style="fill:#f36c2c"/>
            <path data-name="Trazado 7281" d="m211.876 121.55 2.3-.377a2.306 2.306 0 0 0 .763 1.068 2.171 2.171 0 0 0 1.243.313 2.072 2.072 0 0 0 1.3-.377.765.765 0 0 0 .34-.626.655.655 0 0 0-.174-.446 2.97 2.97 0 0 0-.986-.463 10.507 10.507 0 0 1-2.662-1.166 2.168 2.168 0 0 1-.8-1.749 2.539 2.539 0 0 1 .78-1.86 4.365 4.365 0 0 1 3.223-1.088 4.3 4.3 0 0 1 2.569.642 2.81 2.81 0 0 1 1.1 1.74l-2.2.394a1.4 1.4 0 0 0-.563-.746 2.349 2.349 0 0 0-1.276-.334 1.753 1.753 0 0 0-1.074.258.744.744 0 0 0-.327.592.662.662 0 0 0 .331.565 7.679 7.679 0 0 0 1.334.48 6.945 6.945 0 0 1 2.329 1.029 2.183 2.183 0 0 1 .829 1.714 2.933 2.933 0 0 1-1.053 2.246 4.267 4.267 0 0 1-2.966.952 5.107 5.107 0 0 1-2.946-.725 3.589 3.589 0 0 1-1.413-2.036" transform="translate(-54.564 -29.559)" style="fill:#f36c2c"/>
        </g>
    </g>
</svg>
