<svg data-name="Grupo 4679" xmlns="http://www.w3.org/2000/svg" width="250.134" height="43.728" viewBox="0 0 250.134 43.728">
    <g data-name="Grupo 4680">
        <path data-name="Trazado 7894" d="M147.981 45.063a10.039 10.039 0 0 0-4.783-1c-4.783 0-7.878 3.658-7.878 10.772 0 5.788 2.814 11.536 9.526 11.536a6.02 6.02 0 0 0 4.06-1.326 15.869 15.869 0 0 0 3.055-3.979 2.11 2.11 0 0 1 1.126.764c-.482 1.688-2.131 4.864-3.216 5.587a19.065 19.065 0 0 1-6.069.965c-8.964 0-14.189-4.582-14.189-13.143a11.927 11.927 0 0 1 6.512-10.973 17.184 17.184 0 0 1 8.16-1.728c3.216 0 6.27.6 8.079.683a53.065 53.065 0 0 0-.643 6.552c-.161.2-1.367.321-1.407.12-.4-2.652-.764-3.939-2.331-4.823" transform="translate(-75.114 -24.648)" style="fill:#c11842"/>
        <path data-name="Trazado 7895" d="M208.66 71.172a8.118 8.118 0 0 1-3.7 7.235 10.526 10.526 0 0 1-5.226 1.528c-6.029 0-8.562-4.06-8.562-8.642a7.891 7.891 0 0 1 3.577-6.793 10.378 10.378 0 0 1 5.547-1.608c5.346 0 8.361 3.658 8.361 8.28m-10.81-6.272c-1.045.724-1.728 2.211-1.728 5.265 0 5.266 1.889 8.16 4.461 8.16a2.42 2.42 0 0 0 1.648-.563c.965-.885 1.407-2.572 1.407-5.387 0-4.783-1.648-7.878-4.422-7.878a2.454 2.454 0 0 0-1.367.4" transform="translate(-110.792 -36.448)" style="fill:#c11842"/>
        <path data-name="Trazado 7896" d="M250.83 67.957a2.2 2.2 0 0 1-1.246.08c-.322-1.688-.724-2.733-1.648-3.3a3.507 3.507 0 0 0-1.768-.483 2 2 0 0 0-2.17 1.93c0 1.166.482 1.849 3.859 3.417 3.215 1.447 4.18 2.813 4.18 4.944 0 3.336-3.176 5.346-6.914 5.346a15.246 15.246 0 0 1-4.783-.764c-.2-.884-.563-4.06-.6-4.824a2.7 2.7 0 0 1 1.286-.4c.643 2.131 1.407 3.3 2.533 3.979a4.233 4.233 0 0 0 2.13.563c1.406 0 2.291-.764 2.291-1.849 0-1.206-.723-1.889-2.773-2.894-3.859-1.849-5.024-3.336-5.024-5.668 0-2.773 2.17-5.145 6.511-5.145a22.235 22.235 0 0 1 2.774.241c.884.121 1.447.2 1.849.242a35.727 35.727 0 0 0-.482 4.582" transform="translate(-138.934 -36.448)" style="fill:#c11842"/>
        <path data-name="Trazado 7897" d="M275.35 52.723a16.072 16.072 0 0 0 3.819-2.05 2.981 2.981 0 0 1 .844-.04c-.08.8-.161 2.733-.161 5.426 0 .121.08.281.161.281 1.206 0 3.658-.121 4.582-.2a17.842 17.842 0 0 0-.4 2.492c-1.126-.04-2.773-.04-4.18-.04-.08 0-.161.161-.161.241-.04 1.648-.04 4.7-.04 6.632a13.311 13.311 0 0 0 .2 2.974 2.089 2.089 0 0 0 2.17 1.567 3.592 3.592 0 0 0 2.251-.6 3.185 3.185 0 0 1-.04 1.367 5.808 5.808 0 0 1-4.542 2.05 4.209 4.209 0 0 1-3.939-1.97c-.6-1.045-.6-2.13-.6-4.5 0-2.09.04-5.707.04-7.4a.387.387 0 0 0-.241-.362c-.563-.04-1.407-.08-2.01-.161a5.869 5.869 0 0 1 .362-1.568 10.51 10.51 0 0 0 1.688-.4c.08 0 .161-.161.2-.322z" transform="translate(-158.269 -29.334)" style="fill:#c11842"/>
        <path data-name="Trazado 7898" d="M312.436 66.871a3.414 3.414 0 0 0-2.854-1.326 3.007 3.007 0 0 0-1.849.482 12.459 12.459 0 0 0-1.446 2.572c-.161.161-1.407-.442-1.367-.724a8.206 8.206 0 0 1 .884-2.532 13.575 13.575 0 0 1 5.949-2.452 5.21 5.21 0 0 1 4.5 2.331 7.111 7.111 0 0 1 1 4.06c0 1.929-.121 4.7-.121 6.311 0 .8.281 1.568 1.246 1.568a4.028 4.028 0 0 0 1.367-.2 4.594 4.594 0 0 1-.2 1.487 6.157 6.157 0 0 1-4.019 1.487 2.283 2.283 0 0 1-2.332-1.166c-.08-.2-.16-.563-.241-.764 0-.08-.12-.08-.161-.08a10.886 10.886 0 0 1-4.582 2.01 3.464 3.464 0 0 1-2.332-.965 5.335 5.335 0 0 1-1.528-3.858 7.4 7.4 0 0 1 .683-2.372c1.247-.683 6.15-1.849 7.637-2.532a.715.715 0 0 0 .322-.442 4.348 4.348 0 0 0 .04-.724 3.861 3.861 0 0 0-.6-2.17m.4 4.623a29.018 29.018 0 0 0-3.859 1.487 3.279 3.279 0 0 0-.362 1.326 2.683 2.683 0 0 0 2.693 2.854 2.391 2.391 0 0 0 1.296-.362.894.894 0 0 0 .321-.8c.081-1.126.081-3.617.081-4.3 0-.04-.121-.2-.161-.2" transform="translate(-176.384 -36.448)" style="fill:#c11842"/>
        <path data-name="Trazado 7899" d="M362.693 43.964c1.246 0 3.175.121 5.707.121 3.3 0 4.864-.121 5.748-.121a2.015 2.015 0 0 1 0 1.286 15.768 15.768 0 0 0-2.091.362c-.884.322-.965.885-1 2.05-.081 1.367-.081 4.422-.081 7.918 0 4.542 0 7.8.081 9.285.04.884.121 1.728 1.286 2.009a18.7 18.7 0 0 0 2.292.4 1.686 1.686 0 0 1-.161 1.327c-1.407-.04-3.176-.121-5.748-.121-3.175 0-4.622.121-6.069.121a1.536 1.536 0 0 1 0-1.327 12.807 12.807 0 0 0 1.884-.274c1.086-.241 1.286-.683 1.407-2.05.081-1.286.081-5.748.081-9.687s0-6.109-.081-7.878c-.08-.884-.281-1.487-1.045-1.728a13.489 13.489 0 0 0-2.251-.4 1.768 1.768 0 0 1 .04-1.286" transform="translate(-210.081 -25.479)" style="fill:#c11842"/>
        <path data-name="Trazado 7900" d="M395.323 77.783c.563-.161.764-.724.844-1.528.04-1.206.08-4.3.08-6.311 0-1.166-.039-2.653-.08-3.175-.081-.4-.4-.925-1.97-1.487a2.389 2.389 0 0 1 .2-1.086 21 21 0 0 0 6.15-1.688.407.407 0 0 1 .161.282c0 .442-.04 1.567-.04 2.251a.144.144 0 0 0 .2.12c1.97-1.567 3.9-2.492 5.266-2.492a4.577 4.577 0 0 1 4.06 2.13 8.651 8.651 0 0 1 1.045 4.743c0 2.372 0 5.868.04 7.2a.833.833 0 0 0 .362.683 4.548 4.548 0 0 0 1.969.6 2.166 2.166 0 0 1-.2 1.327c-.6 0-1.809-.121-4.381-.121-2.091 0-3.055.081-4.3.121a2.968 2.968 0 0 1 0-1.327 10.743 10.743 0 0 0 1.287-.241c.482-.2.643-.563.683-1.326a70.467 70.467 0 0 0-.161-8.24 3.071 3.071 0 0 0-1.166-2.01 2.889 2.889 0 0 0-1.969-.6 4.452 4.452 0 0 0-2.331.764 1.068 1.068 0 0 0-.362.884c.04 2.693.04 6.994.08 9.124.04 1 .281 1.246.844 1.407a6.594 6.594 0 0 0 1.326.241 2.511 2.511 0 0 1-.12 1.327c-1.246-.04-2.572-.121-4.5-.121-2.452 0-3.577.081-4.341.121a2.475 2.475 0 0 1 0-1.327 7.644 7.644 0 0 0 1.326-.241" transform="translate(-228.281 -36.226)" style="fill:#c11842"/>
        <path data-name="Trazado 7901" d="M439.716 63.943c1.166.04 2.974.121 4.623.121 1.969 0 3.336-.08 4.22-.121a1.59 1.59 0 0 1 .081 1.286 12.575 12.575 0 0 0-1.447.362.435.435 0 0 0-.241.523c.482 1.568 2.572 6.994 3.256 8.642.04.08.12.04.161 0 .764-1.889 2.332-5.788 2.854-7.557.362-1.085.08-1.407-.362-1.568a8.49 8.49 0 0 0-1.809-.4 1.955 1.955 0 0 1 .161-1.286c.563 0 2.13.121 3.617.121 1.287 0 2.774-.08 3.537-.121a1.788 1.788 0 0 1-.04 1.286 10.512 10.512 0 0 0-1.407.321c-.643.241-1.086.8-1.608 1.93-1.045 2.17-2.492 5.507-3.859 8.924a94.258 94.258 0 0 0-1.367 3.778 13.733 13.733 0 0 0-2.572.04c-.322-1.046-.764-2.211-1.246-3.5-1.005-2.733-2.291-5.868-3.055-7.758-1.166-2.773-1.367-3.095-2.291-3.417a10.01 10.01 0 0 0-1.407-.321 2.64 2.64 0 0 1 .2-1.286" transform="translate(-254.707 -37.057)" style="fill:#c11842"/>
        <path data-name="Trazado 7902" d="M500.533 75.232a4.675 4.675 0 0 1-.161 1.246 9.88 9.88 0 0 1-7.074 3.457 7.1 7.1 0 0 1-5.226-1.93 9.107 9.107 0 0 1-2.371-6.552 8.367 8.367 0 0 1 3.7-7.235 9.739 9.739 0 0 1 4.662-1.326c4.3 0 5.788 3.537 6.11 5.788.04.2.362.4.643.483a2.243 2.243 0 0 1-.282 1.045c-1.367.442-7.114.8-10.129.925-.121 0-.2.241-.2.4a5.765 5.765 0 0 0 1.567 3.537 5.181 5.181 0 0 0 3.98 1.528 7.129 7.129 0 0 0 4.622-1.608c.04.04.161.121.161.241m-10.37-6.109c0 .04.08.241.241.241a41.164 41.164 0 0 0 5.1-.161.444.444 0 0 0 .281-.362c-.2-2.372-1.205-4.381-2.934-4.381-1.567 0-2.652 1.93-2.693 4.663" transform="translate(-281.479 -36.448)" style="fill:#c11842"/>
        <path data-name="Trazado 7903" d="M538.188 67.957a2.2 2.2 0 0 1-1.246.08c-.322-1.688-.724-2.733-1.648-3.3a3.507 3.507 0 0 0-1.768-.483 2 2 0 0 0-2.17 1.93c0 1.166.482 1.849 3.859 3.417 3.216 1.447 4.18 2.813 4.18 4.944 0 3.336-3.175 5.346-6.913 5.346a15.246 15.246 0 0 1-4.783-.764c-.2-.884-.563-4.06-.6-4.824a2.7 2.7 0 0 1 1.286-.4c.643 2.131 1.407 3.3 2.532 3.979a4.234 4.234 0 0 0 2.131.563c1.406 0 2.291-.764 2.291-1.849 0-1.206-.724-1.889-2.773-2.894-3.859-1.849-5.025-3.336-5.025-5.668 0-2.773 2.17-5.145 6.512-5.145a22.223 22.223 0 0 1 2.773.241c.885.121 1.447.2 1.849.242a35.776 35.776 0 0 0-.482 4.582" transform="translate(-305.467 -36.448)" style="fill:#c11842"/>
        <path data-name="Trazado 7904" d="M562.706 52.723a16.088 16.088 0 0 0 3.819-2.05 2.983 2.983 0 0 1 .844-.04c-.081.8-.161 2.733-.161 5.426 0 .121.08.281.161.281 1.206 0 3.658-.121 4.582-.2a17.933 17.933 0 0 0-.4 2.492c-1.125-.04-2.773-.04-4.18-.04-.081 0-.161.161-.161.241-.04 1.648-.04 4.7-.04 6.632a13.281 13.281 0 0 0 .2 2.974 2.088 2.088 0 0 0 2.17 1.567 3.591 3.591 0 0 0 2.251-.6 3.186 3.186 0 0 1-.04 1.367 5.808 5.808 0 0 1-4.542 2.05 4.208 4.208 0 0 1-3.939-1.97c-.6-1.045-.6-2.13-.6-4.5 0-2.09.04-5.707.04-7.4a.387.387 0 0 0-.241-.362c-.563-.04-1.407-.08-2.01-.161a5.871 5.871 0 0 1 .362-1.568 10.5 10.5 0 0 0 1.688-.4c.081 0 .161-.161.2-.322z" transform="translate(-324.801 -29.334)" style="fill:#c11842"/>
        <path data-name="Trazado 7905" d="M17.357 43.506H8.1V19.649H0L28.865 0l11.122 7.568c-7.119.8-15.839 3.36-22.676 10.327-10.264 10.453-6.883 20.536.046 25.611" style="fill:#c01743"/>
        <path data-name="Trazado 7906" d="M82.922 32.659h-8.1v6.181c-1.354-7.022-6.971-12.85-6.971-12.85h-1.478s5.857 7.493 4.39 15.335-6.2 9.574-6.2 9.574l8.014.6s1.556-1.253 2.241-5.121V52.9c-2.872-.029-7.455-.181-13.447-.715-10.684-.946-26.54-8.788-12.152-21.284a33.79 33.79 0 0 1 18.7-8.456z" transform="translate(-25.192 -13.01)" style="fill:#bdbec0"/>
        <path data-name="Trazado 7907" d="M582.747 40.184a2.657 2.657 0 0 1 .333-1.332 2.478 2.478 0 0 1 .908-.928 2.52 2.52 0 0 1 1.306-.339 2.57 2.57 0 0 1 1.332.339 2.426 2.426 0 0 1 .9.928 2.851 2.851 0 0 1 0 2.651 2.47 2.47 0 0 1-.9.934 2.53 2.53 0 0 1-1.332.346 2.481 2.481 0 0 1-1.306-.346 2.523 2.523 0 0 1-.908-.934 2.631 2.631 0 0 1-.333-1.319m.431 0a2.323 2.323 0 0 0 .267 1.123 1.978 1.978 0 0 0 .738.777 2.124 2.124 0 0 0 1.11.281 2.2 2.2 0 0 0 1.123-.281 1.907 1.907 0 0 0 .744-.777 2.559 2.559 0 0 0 0-2.252 1.964 1.964 0 0 0-.744-.777 2.158 2.158 0 0 0-1.123-.287 2.088 2.088 0 0 0-1.11.287 2.041 2.041 0 0 0-.738.777 2.314 2.314 0 0 0-.267 1.13m1.149-1.424v2.808h.5v-1.124h.679a.947.947 0 0 0 .679-.235.808.808 0 0 0 .248-.614.782.782 0 0 0-.248-.614.984.984 0 0 0-.679-.222zm1.149.457a.56.56 0 0 1 .327.091.411.411 0 0 1 0 .6.557.557 0 0 1-.327.092h-.653v-.784zm.444 2.351.587-.013-.888-1.28h-.548z" transform="translate(-337.72 -21.782)" style="fill:#c11842"/>
    </g>
</svg>
