<svg data-name="Grupo 4731" xmlns="http://www.w3.org/2000/svg" width="409.999" height="71.675" viewBox="0 0 409.999 71.675">
    <g data-name="Grupo 4680">
        <path data-name="Trazado 7894" d="M159.722 46.681a16.455 16.455 0 0 0-7.84-1.647c-7.84 0-12.914 6-12.914 17.657 0 9.488 4.612 18.909 15.615 18.909a9.868 9.868 0 0 0 6.655-2.174 26.012 26.012 0 0 0 5.007-6.523 3.459 3.459 0 0 1 1.845 1.252c-.791 2.767-3.492 7.973-5.271 9.158a31.249 31.249 0 0 1-9.949 1.581c-14.692 0-23.258-7.51-23.258-21.544 0-7.314 3.426-14.3 10.674-17.987 3.492-1.845 7.84-2.833 13.375-2.833 5.271 0 10.278.988 13.243 1.12a86.979 86.979 0 0 0-1.055 10.739c-.263.329-2.24.527-2.306.2-.659-4.347-1.252-6.456-3.821-7.906" transform="translate(-40.283 -13.219)" style="fill:#c11842"/>
        <path data-name="Trazado 7895" d="M219.835 76.464c0 5.336-2.241 9.488-6.061 11.859a17.254 17.254 0 0 1-8.565 2.5c-9.882 0-14.033-6.654-14.033-14.166a12.934 12.934 0 0 1 5.864-11.134 17.011 17.011 0 0 1 9.093-2.636c8.762 0 13.7 6 13.7 13.572m-17.721-10.273c-1.713 1.186-2.833 3.624-2.833 8.63 0 8.632 3.1 13.375 7.312 13.375a3.967 3.967 0 0 0 2.7-.922c1.581-1.45 2.306-4.217 2.306-8.829 0-7.84-2.7-12.913-7.248-12.913a4.022 4.022 0 0 0-2.24.659" transform="translate(-59.417 -19.547)" style="fill:#c11842"/>
        <path data-name="Trazado 7896" d="M257.921 71.193a3.605 3.605 0 0 1-2.043.132c-.527-2.766-1.186-4.48-2.7-5.4a5.748 5.748 0 0 0-2.9-.791 3.269 3.269 0 0 0-3.558 3.163c0 1.91.79 3.03 6.325 5.6 5.27 2.372 6.852 4.611 6.852 8.1 0 5.468-5.206 8.763-11.332 8.763a24.989 24.989 0 0 1-7.84-1.252c-.329-1.449-.922-6.654-.988-7.906a4.431 4.431 0 0 1 2.108-.659c1.054 3.492 2.306 5.4 4.151 6.523a6.938 6.938 0 0 0 3.492.923c2.305 0 3.755-1.252 3.755-3.03 0-1.977-1.185-3.1-4.546-4.744-6.325-3.031-8.235-5.469-8.235-9.29 0-4.545 3.558-8.433 10.673-8.433a36.446 36.446 0 0 1 4.547.395c1.449.2 2.372.33 3.03.4a58.564 58.564 0 0 0-.791 7.51" transform="translate(-74.51 -19.547)" style="fill:#c11842"/>
        <path data-name="Trazado 7897" d="M276.788 54.069a26.344 26.344 0 0 0 6.259-3.36 4.886 4.886 0 0 1 1.383-.065c-.132 1.318-.263 4.48-.263 8.894 0 .2.132.461.263.461 1.977 0 6-.2 7.511-.329a29.241 29.241 0 0 0-.659 4.085c-1.845-.066-4.545-.066-6.852-.066-.132 0-.263.264-.263.4-.066 2.7-.066 7.709-.066 10.871a21.817 21.817 0 0 0 .329 4.875 3.423 3.423 0 0 0 3.558 2.569 5.888 5.888 0 0 0 3.69-.988 5.221 5.221 0 0 1-.066 2.24 9.52 9.52 0 0 1-7.445 3.361c-2.9 0-5.271-1.054-6.457-3.229-.988-1.713-.988-3.491-.988-7.379 0-3.425.065-9.355.065-12.123a.634.634 0 0 0-.395-.593c-.923-.065-2.306-.131-3.294-.263a9.619 9.619 0 0 1 .593-2.569 17.228 17.228 0 0 0 2.767-.659c.132 0 .264-.263.329-.527z" transform="translate(-84.879 -15.732)" style="fill:#c11842"/>
        <path data-name="Trazado 7898" d="M317.6 69.415a5.6 5.6 0 0 0-4.678-2.174 4.929 4.929 0 0 0-3.031.79 20.421 20.421 0 0 0-2.371 4.217c-.265.263-2.307-.725-2.24-1.186.066-.659.988-3.821 1.449-4.151 3.162-2.306 7.84-4.019 9.751-4.019a8.539 8.539 0 0 1 7.379 3.822 11.655 11.655 0 0 1 1.647 6.654c0 3.162-.2 7.709-.2 10.344 0 1.317.461 2.569 2.042 2.569a6.6 6.6 0 0 0 2.24-.329 7.528 7.528 0 0 1-.329 2.438 10.092 10.092 0 0 1-6.588 2.438c-2.109 0-3.361-.791-3.822-1.91-.132-.33-.263-.923-.395-1.252 0-.132-.2-.132-.264-.132-3.228 2.174-6.258 3.294-7.51 3.294a5.678 5.678 0 0 1-3.822-1.582 8.745 8.745 0 0 1-2.5-6.324 12.135 12.135 0 0 1 1.12-3.888c2.042-1.12 10.08-3.034 12.522-4.151a1.171 1.171 0 0 0 .527-.724 7.129 7.129 0 0 0 .066-1.186 6.329 6.329 0 0 0-.989-3.558m.66 7.577c-1.911.724-5.47 1.779-6.325 2.438a5.375 5.375 0 0 0-.593 2.174 4.4 4.4 0 0 0 4.414 4.678 3.92 3.92 0 0 0 2.109-.593 1.465 1.465 0 0 0 .526-1.318c.132-1.845.132-5.929.132-7.049 0-.066-.2-.329-.263-.329" transform="translate(-94.594 -19.547)" style="fill:#c11842"/>
        <path data-name="Trazado 7899" d="M362.815 43.964c2.042 0 5.2.2 9.355.2 5.4 0 7.973-.2 9.422-.2a3.3 3.3 0 0 1 0 2.108 25.844 25.844 0 0 0-3.427.593c-1.449.528-1.581 1.45-1.647 3.361-.132 2.24-.132 7.248-.132 12.979 0 7.445 0 12.782.132 15.22.065 1.449.2 2.833 2.108 3.294a30.654 30.654 0 0 0 3.756.659 2.763 2.763 0 0 1-.263 2.175c-2.307-.066-5.205-.2-9.422-.2-5.2 0-7.576.2-9.949.2a2.517 2.517 0 0 1 0-2.175 20.99 20.99 0 0 0 3.1-.461c1.78-.395 2.108-1.12 2.306-3.36.132-2.108.132-9.422.132-15.878s0-10.014-.132-12.914c-.132-1.449-.461-2.437-1.713-2.833a22.109 22.109 0 0 0-3.69-.659 2.9 2.9 0 0 1 .066-2.108" transform="translate(-112.666 -13.664)" style="fill:#c11842"/>
        <path data-name="Trazado 7900" d="M396.229 87.546c.922-.264 1.252-1.186 1.384-2.5.066-1.977.131-7.049.131-10.344 0-1.91-.065-4.348-.131-5.2-.132-.659-.659-1.516-3.229-2.438a3.916 3.916 0 0 1 .329-1.779 34.42 34.42 0 0 0 10.081-2.767.667.667 0 0 1 .263.462c0 .725-.066 2.569-.066 3.689a.235.235 0 0 0 .329.2c3.229-2.569 6.391-4.084 8.631-4.084a7.5 7.5 0 0 1 6.654 3.491c1.317 2.043 1.713 4.678 1.713 7.774 0 3.888 0 9.619.066 11.794a1.366 1.366 0 0 0 .593 1.12 7.455 7.455 0 0 0 3.228.988 3.551 3.551 0 0 1-.329 2.175c-.989 0-2.965-.2-7.181-.2-3.427 0-5.008.132-7.05.2a4.865 4.865 0 0 1 0-2.175 17.612 17.612 0 0 0 2.109-.395c.79-.33 1.054-.923 1.12-2.174.065-2.636.2-10.871-.264-13.507a5.034 5.034 0 0 0-1.911-3.294 4.735 4.735 0 0 0-3.228-.988 7.3 7.3 0 0 0-3.822 1.252 1.751 1.751 0 0 0-.593 1.449c.065 4.414.065 11.464.132 14.956.066 1.647.461 2.042 1.384 2.306a10.808 10.808 0 0 0 2.174.395 4.116 4.116 0 0 1-.2 2.175c-2.043-.066-4.217-.2-7.379-.2-4.019 0-5.864.132-7.115.2a4.057 4.057 0 0 1 0-2.175 12.53 12.53 0 0 0 2.174-.395" transform="translate(-122.426 -19.428)" style="fill:#c11842"/>
        <path data-name="Trazado 7901" d="M439.851 63.943c1.91.066 4.875.2 7.577.2 3.228 0 5.469-.132 6.918-.2a2.606 2.606 0 0 1 .132 2.108 20.611 20.611 0 0 0-2.372.593.713.713 0 0 0-.395.857c.79 2.57 4.217 11.464 5.336 14.165.066.132.2.066.263 0 1.252-3.1 3.822-9.488 4.678-12.386.593-1.779.132-2.306-.593-2.569a13.915 13.915 0 0 0-2.966-.659 3.2 3.2 0 0 1 .264-2.108c.923 0 3.491.2 5.929.2 2.109 0 4.547-.132 5.8-.2a2.931 2.931 0 0 1-.065 2.108 17.231 17.231 0 0 0-2.306.527c-1.055.4-1.78 1.318-2.636 3.163-1.713 3.558-4.085 9.026-6.325 14.627-1.054 2.766-1.713 4.611-2.24 6.193a22.509 22.509 0 0 0-4.216.066c-.527-1.714-1.252-3.624-2.042-5.733-1.648-4.48-3.755-9.619-5.008-12.716-1.91-4.545-2.24-5.072-3.755-5.6a16.407 16.407 0 0 0-2.306-.527 4.327 4.327 0 0 1 .329-2.108" transform="translate(-136.598 -19.874)" style="fill:#c11842"/>
        <path data-name="Trazado 7902" d="M510.012 83.118a7.662 7.662 0 0 1-.263 2.043 16.2 16.2 0 0 1-11.6 5.667 11.645 11.645 0 0 1-8.565-3.163c-2.766-2.7-3.886-6.787-3.886-10.739a13.714 13.714 0 0 1 6.062-11.86 15.963 15.963 0 0 1 7.642-2.174c7.05 0 9.487 5.8 10.015 9.487.065.33.593.659 1.055.791a3.676 3.676 0 0 1-.462 1.713c-2.24.725-11.661 1.318-16.6 1.516-.2 0-.329.4-.329.659a9.449 9.449 0 0 0 2.569 5.8 8.493 8.493 0 0 0 6.523 2.5 11.685 11.685 0 0 0 7.576-2.635c.066.066.263.2.263.395m-17-10.014c0 .066.131.395.395.395a67.472 67.472 0 0 0 8.368-.263.727.727 0 0 0 .461-.593c-.329-3.888-1.976-7.181-4.81-7.181-2.569 0-4.348 3.163-4.414 7.643" transform="translate(-150.956 -19.547)" style="fill:#c11842"/>
        <path data-name="Trazado 7903" d="M545.278 71.193a3.6 3.6 0 0 1-2.042.132c-.527-2.766-1.186-4.48-2.7-5.4a5.748 5.748 0 0 0-2.9-.791 3.269 3.269 0 0 0-3.558 3.163c0 1.91.791 3.03 6.325 5.6 5.271 2.372 6.852 4.611 6.852 8.1 0 5.468-5.2 8.763-11.332 8.763a24.989 24.989 0 0 1-7.84-1.252c-.33-1.449-.923-6.654-.988-7.906a4.429 4.429 0 0 1 2.108-.659c1.054 3.492 2.306 5.4 4.15 6.523a6.94 6.94 0 0 0 3.492.923c2.305 0 3.755-1.252 3.755-3.03 0-1.977-1.186-3.1-4.546-4.744-6.325-3.031-8.236-5.469-8.236-9.29 0-4.545 3.557-8.433 10.674-8.433a36.425 36.425 0 0 1 4.546.395c1.45.2 2.372.33 3.031.4a58.641 58.641 0 0 0-.791 7.51" transform="translate(-163.821 -19.547)" style="fill:#c11842"/>
        <path data-name="Trazado 7904" d="M564.145 54.069a26.369 26.369 0 0 0 6.259-3.36 4.89 4.89 0 0 1 1.384-.065c-.132 1.318-.264 4.48-.264 8.894 0 .2.132.461.264.461 1.976 0 6-.2 7.51-.329a29.4 29.4 0 0 0-.659 4.085c-1.845-.066-4.545-.066-6.851-.066-.132 0-.264.264-.264.4-.066 2.7-.066 7.709-.066 10.871a21.768 21.768 0 0 0 .33 4.875 3.422 3.422 0 0 0 3.558 2.569 5.886 5.886 0 0 0 3.689-.988 5.222 5.222 0 0 1-.066 2.24 9.521 9.521 0 0 1-7.445 3.361c-2.9 0-5.27-1.054-6.456-3.229-.989-1.713-.989-3.491-.989-7.379 0-3.425.066-9.355.066-12.123a.634.634 0 0 0-.395-.593c-.923-.065-2.306-.131-3.3-.263a9.624 9.624 0 0 1 .593-2.569 17.212 17.212 0 0 0 2.767-.659c.132 0 .263-.263.33-.527z" transform="translate(-174.19 -15.732)" style="fill:#c11842"/>
        <path data-name="Trazado 7905" d="M28.45 71.311H13.281V32.206H0L47.314 0l18.229 12.406c-11.668 1.309-25.962 5.507-37.169 16.927-16.823 17.133-11.282 33.661.076 41.979" style="fill:#c01743"/>
        <path data-name="Trazado 7906" d="M108.137 39.184h-13.28v10.131c-2.22-11.51-11.427-21.062-11.427-21.062h-2.419s9.6 12.282 7.2 25.135-10.164 15.693-10.164 15.693l13.136.986s2.55-2.054 3.673-8.394v10.7c-4.707-.048-12.219-.3-22.041-1.172C55.3 69.646 29.314 56.793 52.9 36.31c10.938-9.5 21.972-12.922 30.656-13.86z" transform="translate(-13.51 -6.977)" style="fill:#bdbec0"/>
        <path data-name="Trazado 7907" d="M582.747 41.845a4.355 4.355 0 0 1 .546-2.183 4.062 4.062 0 0 1 1.488-1.52 4.131 4.131 0 0 1 2.141-.556 4.213 4.213 0 0 1 2.183.556 3.977 3.977 0 0 1 1.477 1.52 4.674 4.674 0 0 1 0 4.345 4.049 4.049 0 0 1-1.477 1.531 4.147 4.147 0 0 1-2.183.567 4.066 4.066 0 0 1-2.141-.567 4.135 4.135 0 0 1-1.488-1.531 4.312 4.312 0 0 1-.546-2.161m.707 0a3.808 3.808 0 0 0 .438 1.84 3.243 3.243 0 0 0 1.21 1.274 3.482 3.482 0 0 0 1.819.46 3.6 3.6 0 0 0 1.841-.46 3.125 3.125 0 0 0 1.22-1.274 4.194 4.194 0 0 0 0-3.692 3.219 3.219 0 0 0-1.22-1.274 3.537 3.537 0 0 0-1.841-.471 3.422 3.422 0 0 0-1.819.471 3.345 3.345 0 0 0-1.21 1.274 3.794 3.794 0 0 0-.438 1.852m1.884-2.334v4.6h.813v-1.839h1.113a1.552 1.552 0 0 0 1.113-.385 1.324 1.324 0 0 0 .407-1.006 1.282 1.282 0 0 0-.407-1.006 1.612 1.612 0 0 0-1.113-.364zm1.883.749a.918.918 0 0 1 .536.15.674.674 0 0 1 0 .985.913.913 0 0 1-.536.15h-1.07V40.26zm.729 3.853.963-.021-1.456-2.1h-.9z" transform="translate(-181.118 -11.681)" style="fill:#c11842"/>
    </g>
</svg>
