<?xml version="1.0" encoding="UTF-8"?>
<svg id="Capa_1" data-name="Capa 1" xmlns="http://www.w3.org/2000/svg" viewBox="0 0 5117.19 1087.77">
  <defs>
    <style>
      .cls-1, .cls-2, .cls-3, .cls-4 {
        stroke-width: 0px;
      }

      .cls-1, .cls-3 {
        fill: #ff7f00;
      }

      .cls-1, .cls-4 {
        fill-rule: evenodd;
      }
    </style>
  </defs>
  <path class="cls-1" d="M508.77,286.42c0-22.73,53.21-46.17,101.76-76,37.91-23.44,71.17-44.74,79.15-44.74,8.65,0,26.6,16.33,51.88,31.96,33.26,21.31,66.51,41.2,77.82,48.3,15.3,7.1,36.58,17.75,36.58,29.83,0,7.1-1.33,5.68-6.65,5.68-21.28-5.68-56.53-7.1-86.46-7.1-17.96,0-64.51,0-107.74,1.42-17.96,2.13-44.56,3.55-53.21,5.68-16.63,0-51.21,7.1-71.17,10.66-3.33,0-6.65,1.42-11.97,1.42-6.65,0-9.98-3.55-9.98-7.1Z"/>
  <path class="cls-4" d="M376.8,278.27c0-13.36,1.47-19.65,11.04-27.51,39.75-33.01,253.2-196.51,286.33-196.51,23.55,0,97.16,51.09,130.28,58.95,9.57-7.86,0-33.01,18.4-33.01,14.72,0,31.65-3.93,46.37-3.93,27.23,0,29.44,19.65,29.44,43.23,0,19.65-3.68,36.94-2.21,55.02,11.04,11.79,29.45,21.22,44.16,31.44,18.4,13.36,36.8,21.22,47.84,40.87-3.68,19.65-11.04,41.66-29.44,43.23h-7.36c-34.59-19.65-73.61-56.59-93.48-70.74-35.33-23.58-145.74-94.32-171.5-94.32-16.19,0-60.36,29.87-104.52,57.38-33.12,21.22-71.4,44.8-103.05,68.38-40.48,27.51-66.24,56.59-80.97,56.59-8.83,0-21.35-18.87-21.35-29.08Z"/>
  <path class="cls-4" d="M420.37,353.94c-1.37-12.61,3.42-26.73,10.27-30.26,6.85-4.03,13.69-5.04,23.96-5.04,0,0,26.01-1.51,39.7-2.52,11.64-1.51-12.32,0,54.76-1.51,4.79-1.01,11.64-1.01,18.48-2.52,8.9,1.51,56.81,1.51,82.14,0,30.8,0,62.98-3.53,95.83-6.05,18.48-1.01,68.45,0,92.41,0,25.33,0,92.41,3.53,100.63,6.05,13.69,2.52,10.27,16.65,13.69,24.21,0,52.96,3.42,104.4,3.42,157.36,0,16.65-4.79,93.31-6.85,138.7,3.42,5.04,5.48,11.1,5.48,16.14,0,10.09-27.38,22.7-41.07,22.7-2.05,0-6.85,0-10.27-1.01-3.42,0-10.27,0-10.27-12.61,0-21.69,6.84-11.6,6.84-65.57,0-22.7-2.05-45.39-2.05-68.09,0-38.84,2.05-78.18,2.05-117.01,1.37-10.09,0-21.69,0-31.78,0-7.56,1.37-15.13,1.37-22.7,0-3.53,0-6.05-3.43-8.57-6.84-2.52-37.65-4.03-49.28-4.03-32.86,0-68.45,2.52-99.26,2.52-17.11,1.51-90.36-1.01-117.74,5.04-6.85,1.51-61.61,2.52-88.99,4.04-17.11,1.01-36.28,5.04-51.34,5.04-19.17,0-27.38,1.01-41.07,5.04-6.84,0-12.32,2.52-19.17,2.52-3.42,0-6.85-1.51-10.27-4.03v-6.05Z"/>
  <path class="cls-4" d="M77.42,741.99c0-36.69,117.74-45.23,156.76-48.75,32.86-2.51,56.81-9.05,95.83-11.56,17.11-1,41.07-1,70.51-6.03,3.42-5.03,3.42-129.67,3.42-203.55,0-25.13,3.42-45.23,3.42-52.77,0-5.02-2.05-10.05-2.05-15.08,0-10.05,0-18.6,13.69-23.62,6.85-1.51,15.06-5.02,23.96-5.02,11.64,0,11.64,3.52,15.06,10.05,0,38.7,3.42,78.9,3.42,118.11,0,54.78-3.42,110.07-4.79,165.35,0,2.51,1.37,5.03,1.37,6.53,70.51-2.51,138.96-4.02,208.78-4.02,62.98,0,93.78,1.51,131.43,1.51l111.58,5.03c49.28,1.01,108.84,5.03,151.96,8.55,58.18,1.51,218.36,15.08,303.93,22.62,17.11,3.52,102.68,2.51,102.68,30.16,0,7.54-13.69,11.06-23.96,11.06l-10.27,1.51c-18.48,0-25.33-2.51-37.65-2.51-28.75-1.51-75.3-5.03-99.26-6.54-18.48-1-49.29-3.52-62.98-5.02-27.38-2.51-58.18-2.51-76.67-3.52-13.69-1.51-58.19-5.03-67.08-5.03-21.9-2.51-130.06-6.53-186.19-11.56-34.23-1.01-100.63-5.03-112.95-5.03h-278.6c-8.21,0-78.72,2.51-78.72,2.51l-67.77,2.52c-80.77,2.51-121.85,10.05-138.96,11.56-21.9,2.51-44.49,6.03-84.88,12.57-17.11,2.51-39.7,6.03-51.34,6.03-6.85,0-10.27-2.51-13.69-6.03Z"/>
  <path class="cls-1" d="M1234.7,609.97c0-19.15,19.92-22.69,34.53-22.69s29.88,3.55,46.48,3.55c8.63,4.97,18.59,0,26.56,7.09,15.27,3.55,23.24,19.15,25.23,33.33-5.31,14.18-8.63,19.85-23.24,19.85s-28.55-3.55-41.83-7.09c-21.25-5.67-67.73,0-67.73-34.04Z"/>
  <path class="cls-1" d="M1049.02,388.95c0-4.96,1.99-10.64,0-15.6,1.99-7.09,3.32-16.31,3.32-23.4,0-22.69-6.64-74.46,26.56-72.33q1.99,0-1.33,0h7.97c18.59,7.09,16.6,31.91,16.6,51.06v39c0,16.31-17.93,35.46-34.53,35.46-6.64,0-18.59-4.97-18.59-14.18Z"/>
  <path class="cls-1" d="M1173.7,403.53c0-8.51,6.64-15.6,9.96-22.69,18.59-19.86,45.15-81.55,71.72-81.55,9.96,0,21.25,7.09,21.25,19.15,0,17.73-44.49,83.68-56.45,97.86-7.97,8.51-17.93,8.51-29.88,9.93-7.97-4.96-16.6-12.06-16.6-22.69Z"/>
  <path class="cls-1" d="M1237.44,495.53c0-8.51,18.59-24.82,46.48-35.46,26.56-10.64,53.13-26.24,61.76-26.24,11.29,0,26.56,10.64,26.56,24.82,0,21.27-26.56,26.24-55.12,39-26.56,10.64-53.12,22.69-63.09,22.69-9.3-1.42-16.6-15.6-16.6-24.82Z"/>
  <path class="cls-4" d="M617.61,435.91s.05-.1.08-.14c2.7-5.16,5.67-10.18,8.88-15.04-1.17-.03-2.34,0-3.5.11l-4.01.54c-10.09,2.4-19.79,6.24-28.78,11.41-23.65,13.69-44.52,31.69-61.53,53.08-7.18,9.13-12.54,19.54-15.81,30.69-1.07,4.23-1.16,8.64-.26,12.91.93,4.08,3.21,7.73,6.46,10.37.57.45,1.15.88,1.74,1.29.03-3.04.44-6.15,1.19-9.25,3.58-12.29,9.49-23.77,17.4-33.83,17.04-21.76,39.7-41.17,64.04-55.25,4.55-2.61,9.26-4.91,14.1-6.88Z"/>
  <path class="cls-4" d="M665.2,414.76c.78,3.32,1,7.12,1.02,10.39.11,7.54-1.26,15.04-4.03,22.06-2.45,6.2-6.04,11.97-10.13,17.22-3.21,4.12-5.94,7.31-9.68,10.96h-.01c-3.7,3.6-7.73,6.82-12.04,9.62l-1.23.8-2.68.68,6.83,6.83c.12.12.24.23.37.34,1.32.95,2.84,1.58,4.45,1.83.77.09,3.21.22,3.62.16l1.48-.38c3.84-2.5,7.42-5.36,10.71-8.54,3.2-3.14,6.17-6.5,8.88-10.07,8.05-10.36,12.38-20.66,12.29-33.78-.03-3.77-.3-8.45-2.01-12.03l1.04-1.61.39-.77.38-1.19c.07-1.03-.1-2.07-.5-3.02-.24-.48-.55-.9-.92-1.26l-8.22-8.22Z"/>
  <path class="cls-4" d="M673.38,538.39c-.17-1.89-.29-3.79-.36-5.7-.11-2.57-.09-5.1.05-7.59l-5.69-5.69c-.8,1.88-2.02,3.66-3.31,5.14-3.85,4.56-8.07,8.79-12.62,12.65-9.96,8.51-20.35,15.5-32.08,21.62-12.05,6.29-24.77,11.17-37.93,14.57-13.48,3.55-27.76,4.81-41.56,3.14-4.41-.52-8.75-1.4-12.99-2.61,20.81,13.72,46.29,14.75,69.98,8.58,39.47-10.16,66-32.24,76.52-44.11Z"/>
  <path class="cls-4" d="M870.25,472.74c-.31,1.2-.76,2.37-1.35,3.48-2.27,4.27-6.55,7.1-11.37,7.51-3.21.27-5.18-.09-8.28-.84-2.87-.7-10.57-1.72-13.49-2.06-11.22-1.33-20.63-2.1-31.92-2.39-9.23,11.02-16.66,21.56-24.49,34.04,6.27-.2,12.54-.28,18.82-.24,5.94-8.64,12.27-16.93,19.31-25.06,12.06.02,24.81,1.12,36.98,2.53,4.89.56,9.76,1.31,14.59,2.25,3.31.96,7.72,1.46,9.72-2.23.64-1.21.92-2.58.78-3.95-.07-2.53-1.12-4.87-2.84-6.59l-6.45-6.45Z"/>
  <path class="cls-4" d="M837.64,533.5c-2.22,5.03-7.5,8.54-13.58,8.68-7.72.22-15.43.55-23.14,1.01-8.5.56-18.75,1.58-27.22,2.46-4.88.51-9.15,1.15-13.95,2.16-3.33,6.88-6.11,13.78-8.52,21.02-2.18,6.56-3.9,15.07-3.97,22.01,0,.84.38,4.23,1.14,4.68,2.28,1.27,4.9,1.79,7.49,1.46.44-.06.89-.12,1.33-.18,2.39-13.6,8.14-27.03,14.13-39.03,6.27-1.52,12.64-2.61,19.07-3.25,9.17-1,18.36-1.83,27.56-2.49,7.84-.46,15.68-.8,23.52-1.02,3.36-.11,6.31-2.24,6.04-5.7-.11-1.41-.76-2.66-1.73-3.63l-8.18-8.18Z"/>
  <path class="cls-4" d="M830.74,594.09c-.89,2.13-2.3,4.11-4.19,5.75-10.05,8.93-21.6,16.02-34.12,20.94-11.06,4.58-22.87,7.1-34.84,7.43h-.26c-1.42,0-2.88-.11-4.34-.31,3.12,2.9,6.86,5.21,11,6.81,3.29,1.27,7.46,2.37,11.01,2.33,10.92-.3,21.69-2.61,31.79-6.79,11.62-4.55,22.33-11.13,31.65-19.43,2.31-1.95,3.12-5.11,1.28-7.7-.08-.12-.18-.22-.28-.33l-8.69-8.69Z"/>
  <path class="cls-4" d="M718.24,598.06c-.61-2.44-.97-4.96-1.08-7.51-.13-3.21-.07-6.29.17-9.34-1.51-3.53-2.81-7.14-3.89-10.83-6.79-23.93,1.11-48.46,21.61-63.14,4.89-3.5,10.27-6.51,15.97-9.04,3.62-5.83,7.32-11.61,11.09-17.34-4.66.91-9.26,2.07-13.79,3.47-9.32,2.88-17.85,6.88-25.85,12.49-8.64,6.09-15.02,14.86-18.14,24.96-2.76,9.29-2.78,19.18-.06,28.48,1.77,6.03,4.18,11.85,7.19,17.37,3.84,6.89,2.79,15.85-4.71,19.95-.35.19-.7.36-1.06.52l8.92,8.92c1.07.83,2.37,1.18,3.64,1.05Z"/>
  <path class="cls-1" d="M627.73,463.44c4.11-14.17,11.11-27.62,16.29-35.1.03,2.54-.14,5.07-.53,7.58-1.66,9.81-8.8,20.95-15.76,27.52ZM579.22,564.85c41.85-10.77,69.16-34.96,78.25-46.14,2.26-2.78,2.66-4.03,1.48-7.73l-1.95-1.36c-3.07-.37-4.34.07-6.44,2.64-5.79,6.03-12.19,11.43-19.1,16.14-7.81,5.31-16.06,9.93-24.66,13.82-8.51,3.93-17.3,7.2-26.31,9.78-10.04,2.8-20.39,4.36-30.81,4.64-12.62.39-25.96-1.71-36.04-9.89-9.85-7.99-12.16-20.28-9.22-32.51,3.58-12.29,9.49-23.77,17.4-33.83,17.04-21.76,39.7-41.17,64.04-55.25,9.86-5.67,20.51-9.86,31.59-12.45l4.61-.62c4.46-.44,8.96-.09,13.3,1.03,2.01.56,3.77,1.78,4.99,3.48-5.62,7.36-10.61,15.19-14.9,23.4-3.25,5.75-5.99,11.77-8.18,18-1.73,4.73-2.7,9.71-2.86,14.74-.06,1.34.52,2.39,1.56,3.27,1.32.95,2.84,1.58,4.45,1.83.77.09,3.21.22,3.62.16l1.48-.38c3.84-2.5,7.42-5.36,10.71-8.54,3.2-3.14,6.17-6.5,8.88-10.07,8.05-10.36,12.38-20.66,12.29-33.78-.03-3.77-.3-8.45-2.01-12.03l1.04-1.61.39-.77.38-1.19c.07-1.03-.1-2.07-.5-3.02-1.04-2.04-3.33-3.11-5.56-2.59-1.09.27-2.01.97-2.56,1.95-8.25-5.78-21.19-5.47-30.46-4.27-16.23,2.1-35.91,12.39-50.82,21.62-27.95,17.29-57.11,42.91-71.46,71.85-6.85,13.81-9.4,31.52-1.46,45.53,3.55,6.2,8.53,11.46,14.52,15.35,20.87,13.94,46.51,15.02,70.33,8.81Z"/>
  <path class="cls-1" d="M861.89,468.13c-.11-4-2.67-7.52-6.44-8.86l-.25-.09c-7-1.38-14.04-2.5-21.12-3.35-8.49-1.01-17.03-1.57-25.58-1.68-.42.02-.82-.19-1.06-.54l-2.17-5.16-1.39-1.45c-1.49-1.15-4.35-.54-5.53.32l-3.68,3.6-2.44,2.87c-14.51.69-28.94,2.57-43.14,5.64-14.18,3.15-27.5,9.38-39.01,18.24-18.52,13.69-29.25,31.12-28.25,54.66.28,8.21,1.66,16.35,4.11,24.2,2.15,7.21,5.19,14.12,9.05,20.58l.18.31,1.77,1.94c1.66,1.28,3.87,1.42,5.65.41l-.09.06c3.02-1.76,2.66-5.29,1.24-7.89-3.33-6.1-6-12.54-7.96-19.2-6.79-23.93,1.11-48.46,21.61-63.14,17.5-12.54,41.4-18.69,62.86-19.84-11.76,16.82-23.53,35.52-34.07,53.61l-8.84,1.54c-1.55.3-3.81,1.33-4.94,2.4-2.01,2.34-2.53,5.61-1.32,8.45.66,1.76,1.75,3.33,3.16,4.57.78,1.12,1.86,2,3.12,2.54-4.48,9.43-7.43,18.83-9.68,28.87-1.41,6.05-1.99,12.27-1.73,18.47.57,12.68,8.95,22.48,20.36,26.88,3.29,1.27,7.46,2.37,11.01,2.33,10.92-.3,21.69-2.61,31.79-6.79,11.62-4.55,22.33-11.13,31.65-19.43,2.31-1.95,3.12-5.11,1.28-7.7-1.08-1.52-3.87-1.73-5.27-1.26l-1.29.6c-6.43,4.12-13.23,7.65-20.3,10.54-12.3,5.04-24.98,8.78-38.18,10.4-4.52.57-9.1-.33-13.06-2.58-1.81-1.06-3.22-2.68-4.01-4.62-.99-2.48-1.51-5.13-1.52-7.8.29-17.43,7.59-35.2,15.28-50.61,6.27-1.52,12.64-2.61,19.07-3.25,9.17-1,18.36-1.83,27.56-2.49,7.84-.46,15.68-.8,23.52-1.02,3.36-.11,6.31-2.24,6.04-5.7-.23-2.94-2.81-5.17-5.64-5.6-7.31-.54-14.63-.86-21.95-.95-7.86-.12-15.72-.05-23.58.21-5.16.16-10.32.43-15.48.81,11.09-19.16,22.38-36.22,36.57-52.6,12.06.02,24.81,1.12,36.98,2.53,4.89.56,9.76,1.31,14.59,2.25,3.31.96,7.72,1.46,9.72-2.23.64-1.21.92-2.58.78-3.95Z"/>
  <path class="cls-1" d="M1182.88,620.38c-5.84,5.76-12.32,10.85-19.3,15.17-18.69,11.55-40.45,17.13-62.38,16.13-14.35-.66-28.47-4.12-41.5-10.25-6.13-2.88-11.98-6.34-17.47-10.31-4.94-3.58-9.56-7.56-13.84-11.9-5.76-5.84-10.85-12.32-15.17-19.3-11.55-18.69-17.13-40.45-16.13-62.38.66-14.35,4.12-28.47,10.25-41.5,2.88-6.13,6.34-11.98,10.31-17.47,3.58-4.94,7.56-9.56,11.9-13.84,5.84-5.76,12.32-10.85,19.3-15.17,18.69-11.55,40.45-17.13,62.38-16.13,14.35.66,28.47,4.12,41.5,10.25,6.13,2.88,11.98,6.34,17.47,10.31,4.94,3.58,9.56,7.56,13.84,11.9,5.76,5.84,10.85,12.32,15.17,19.3,11.55,18.69,17.13,40.45,16.13,62.38-.66,14.35-4.12,28.47-10.25,41.5-2.88,6.13-6.34,11.98-10.31,17.47-3.58,4.94-7.56,9.56-11.9,13.84ZM1193.89,631.56c4.96-4.88,9.51-10.17,13.59-15.81,14.28-19.7,22.43-43.15,23.54-67.46,1.15-25.09-5.24-49.97-18.45-71.35-4.93-7.98-10.75-15.38-17.34-22.06-4.88-4.96-10.17-9.51-15.81-13.59-19.7-14.28-43.15-22.43-67.46-23.54-25.09-1.15-49.97,5.24-71.35,18.45-7.98,4.93-15.38,10.75-22.06,17.34-4.96,4.88-9.51,10.17-13.59,15.81-14.28,19.7-22.43,43.15-23.54,67.46-1.15,25.09,5.24,49.97,18.45,71.35,4.93,7.98,10.75,15.38,17.34,22.06,4.88,4.96,10.17,9.51,15.81,13.59,19.7,14.28,43.15,22.43,67.46,23.54,25.09,1.15,49.97-5.24,71.35-18.45,7.98-4.93,15.38-10.75,22.06-17.34Z"/>
  <path class="cls-1" d="M1032.54,502.49c-5.24,5.16-6.2,13.19-2.88,24.08,3.32,10.89,9.98,21.41,19.98,31.57,9.97,10.12,20.38,16.94,31.24,20.44,10.85,3.5,18.9,2.67,24.14-2.49-9.33,9.19-20.87,13.46-34.64,12.83-13.77-.63-25.64-6.01-35.61-16.13-10-10.15-15.2-22.11-15.61-35.87-.41-13.76,4.05-25.24,13.38-34.42Z"/>
  <path class="cls-1" d="M1083.81,501.69c1.3-.88,2.55-1.9,3.73-3.06,7.92-7.8,9.57-18.95,3.7-24.91s-17.05-4.47-24.96,3.32c-1.18,1.16-2.22,2.4-3.12,3.68,1.28-4.55,3.95-9.12,7.9-13.01,9.63-9.49,23.24-11.3,30.38-4.05,7.15,7.26,5.13,20.83-4.51,30.32-3.95,3.89-8.56,6.49-13.13,7.7ZM1100.24,497.33c12.09-11.91,14.62-28.94,5.66-38.05-8.97-9.1-26.04-6.83-38.13,5.08-12.09,11.91-14.62,28.94-5.66,38.05s26.04,6.83,38.13-5.08Z"/>
  <path class="cls-1" d="M1126.5,546.53c1.3-.88,2.55-1.9,3.73-3.06,7.92-7.8,9.57-18.95,3.7-24.91s-17.05-4.47-24.96,3.32c-1.18,1.16-2.22,2.4-3.12,3.68,1.28-4.55,3.95-9.12,7.9-13.01,9.63-9.49,23.24-11.3,30.38-4.05s5.13,20.83-4.51,30.32c-3.95,3.89-8.56,6.49-13.13,7.7ZM1142.93,542.18c12.09-11.91,14.62-28.94,5.66-38.05-8.97-9.1-26.04-6.83-38.13,5.08-12.09,11.91-14.62,28.94-5.66,38.05,8.97,9.1,26.04,6.83,38.13-5.08Z"/>
  <path class="cls-4" d="M587.02,1022.45c-14.69,7.03-29.07,3.95-35.25,1.86-9.47-3.19-18.81-10.53-23.94-19.16-6.53-10.99-4.77-25.92,2.14-36.44,17.71-26.94,57.59-45.37,89.59-52.85,18.03-4.21,33.35-6.78,51.73-7.2l-18.89,36.84c-8.14,15.96-16.99,29.76-27.98,43.81-10.35,13.24-22.13,25.64-37.4,33.13ZM688.87,879.23c.08-.42.07-.86-.03-1.28l-.07-.31-.68-1.01-1.27-.48-1.5.17-2.07.85-17.82,9.58c-1.18.38-2.43.47-3.66.27l-.22-.68c.42-10.55,11.31-25.38,18.1-34.66,1.94-2.64.39-6.65-2.07-8.44-1.83-1.33-4.13-.76-5.81.48-5.88,4.37-11.56,9-17.01,13.9l-19.65,16.53c-5.9,4.87-12.27,9.14-19.01,12.76l-2.93.98c-2.22.6-2.42-1.03-2.46-2.52-.09-3.98,4.36-12.05,6.78-15.75,3.24-5,6.68-9.85,10.34-14.55l12.49-14.63c1.37-2.27.13-4.85-2.44-5.16-2.17-.27-4.67.2-6.35,1.75-4.24,4.27-8.24,8.76-12,13.46-4.75,5.82-9.08,11.98-12.95,18.42-3.09,4.91-6.09,11.58-6.6,17.46-.09,3.02,1.28,5.89,3.68,7.72,2.61,1.96,6.42,2.65,9.52,1.5,4.66-1.99,9.04-4.58,13.03-7.7l17.87-13.47,15.32-12.25c.41-.29,1.74-1.09,2.09-1.2.04.8-4.95,11.1-5.55,12.42-1.47,3.22-3,9.08-2.75,12.65.35,5.24,6.67,9.19,11.36,8.89,4.27-2.06,19.34-9.74,22.56-12.99l-8.34,12.84-4.8,8.16c-20.53.27-39.96,3.09-59.71,7.47-26.31,5.83-49,14.92-70.76,30.73-15.71,11.42-26.91,27.49-25.51,47.53,1.78,25.44,23.24,45.1,48.25,44.86,51.13-.49,91.43-76.72,108.54-114.42l4.94-10.48c2.1-.02,10.12.37,13.35.87,2.05.32,3.71,1.8,3.63,3.85-.08,2.09-.81,4.1-2.09,5.75-2.12,2.76-4.6,5.21-7.39,7.3l-1.14.79c-.81.69-1.44,1.66-1.32,2.77.26,2.37,2.65,1.6,3.96,1.31l7.28-4.97c2.53-1.75,6.46-5.41,7.21-8.23l.28-2.16c-.76-6.94-6.49-12.28-13.47-12.54h.02s-7.65-.32-7.65-.32c3.8-6.67,7.91-13.16,12.31-19.45l20.63-26.67c6.06-2.58,19.59-7.94,27.12-4.25,4.07,1.99,2.37,9.34.51,12.92-1.62,2.97-3.71,5.66-6.2,7.95l-31.64,8.9-7.19,2.61c-1.82.92-1.59,3.41-1.35,4.93l1.34,1.88,2.13.78c13.91-.23,29.44-5.37,40.71-13.71l16.48-4.38,14.31-3.42c.68-.23,1.87-.95,2.26-1.34l.43-1.01-.32-1.13-.68-.73c-1.92-.81-17.53,2.49-23.04,3.61.84-1.15,1.62-2.34,2.35-3.56,3.32-5.41,5.69-15.21-1.1-19.51-7.41-4.69-21.95-1.6-29.86.53l5.19-7.37,4.94-5.82,1.3-1c1.03-.92.91-2.78-.11-3.64-1.83-1.52-9.57,1.63-11.07,3.07l-15.23,18.97-6.51,2.73c-1.22.64-3.06,1.92-3.64,3.43-.56,1.46.3,3.13,1.24,4.21l1.25,1.09-10.12,15.58Z"/>
  <path class="cls-4" d="M1266.64,880.01c-2.81,2.26-5.82,4.25-9.01,5.94-4.23,2.22-10.29,4.24-14.83,3.99-1.82-.1-.69-2.66-.38-3.33l5.87-10.4,16.15-24.54c1.14-2.05,2.35-5.03.53-7.15-2.11-2.4-5.77-2.63-8.18-.52-.74.66-1.31,1.49-1.64,2.43l-10.1,16.9-6.93,12.53c-1.78,3.22-3.03,6.7-3.69,10.32-1.15,6.89,5.6,10,10.9,10.94,4.02.72,12.42-4.19,16.02-6.44.03.07.64,1.03.81,1.31l1.35.56c3.17-.05,8.88-1.38,11.3-3.69,11.08-10.58,25.02-23.18,38.35-31.21.69-.42,1.79-.61,2.51-.35l.07.08.05.31-.04.17-.2.37c-10.11,12.1-18.73,25.37-25.67,39.52-3.45,7.11-7.33,20.31-.41,27.36,3.15,3.21,7.83,4.2,12.16,3.74,13.8-1.46,25.38-7.16,35.49-15.9,6.26-5.41,12.23-11.45,15.43-19.21.98-2.36,1.85-5.54.5-7.99-1.65-2.99-5.74-2.12-7.99-.6-1.02.69-1.25,1.86-1.44,3l1.06,1.05c.69.49,2.2.74,3.05.77.41.02.68.75.68,1.16-.12,8.33-25.41,26.59-38.19,30.05-1.59.43-2.9.44-4.44.53-7.56.42-10.61-5.14-9.6-11.47,2.61-16.25,20.03-43.86,32.23-56.78.68-.68,1.22-1.49,1.57-2.39.58-1.47-.14-3.14-1.61-3.73-.14-.06-.29-.1-.44-.13-1.14-.44-2.38-.55-3.58-.3-4.78,1.19-3.49,1.17-7.38,3.32-3.13,1.33-6.11,2.99-8.9,4.95l-7.82,5.29-10.54,7.65-9.77,7.58c2.61-4.34,5.39-8.56,8.34-12.68,3.39-4.41,7.08-8.58,11.03-12.5l.09-.09.66-.87.6-2.08-1.47-.96c-2.17-.49-5.95.97-7.17,2.46-5.57,5.91-10.88,12.06-15.91,18.44-3.33,4.05-6.5,8.24-9.49,12.56Z"/>
  <path class="cls-4" d="M1276.61,830.78l-.02-2.04c-1.05-2.41-3.57-3.83-6.18-3.47-2.5.42-5.26,2.67-7.11,4.34l-3.19,3.23c-1.87,2.04-1.58,3.19-1.05,5.36,5.66,5.02,9.87,1.25,14.71-2.97,1.4-1.22,2.25-2.69,2.84-4.44Z"/>
  <path class="cls-4" d="M105.25,833.35c-.23.36-.37.77-.39,1.2-.17,2.01.74,2.3,2.1,2.94h1.65s1.22-.96,1.22-.96l15.27-20.3c1.03-1.5.88-4.35-.88-5.52l-1.69-.81-2-.21-2.01.43c-1.8,1.89-11.58,20.16-13.26,23.24Z"/>
  <path class="cls-4" d="M120.61,835.29c-.04.8.33,1.57,1,2.02l.18.12c1.62.85,2.72.78,3.9-.61l15.39-20.14c.38-.63.58-1.16.67-1.87.38-2.92-2.86-5.12-5.56-4.71l-1.93.47c-1.71,1.8-12.01,21.08-13.62,24.03l-.04.69Z"/>
  <path class="cls-4" d="M278.55,826.24l-.25.67c-3.84,7.25-6.96,14.86-9.31,22.72-2.75,9-3.86,18.42-3.29,27.82.56,6.89,1.52,12.01,6.97,16.1,4.68,3.51,10.27,4.6,16.09,3.68,5.71-1.37,11.12-3.8,15.94-7.16,17.42-11.84,32.51-27.26,44.06-44.85,7.32-11.15,13.19-22.81,12.81-36.36-.19-6.56-2.86-14.47-8.47-18.45l-1-.6c-2.2-.96-3.39-.08-3.91,2.11l.71,1.71c7.56,7.02,6.19,22.1,2.58,31.06-7.73,19.16-22.72,37.41-38.63,51.12-5.97,5.14-16.53,13.97-25.43,15.46-3.71.52-7.49-.35-10.6-2.44-1.95-1.53-3.12-3.84-3.22-6.31-.4-9.17.58-19.07,3.33-28.04,1.46-4.65,3.17-9.22,5.13-13.69,2.45-5.62,5.12-11.15,8.01-16.56.09-.23.36-1.61.34-2.18-.13-3.25-3.49-7.97-6.66-8.91-1.12-.15-2.25.23-3.05,1.02l.06-.06c-.62.61-1.14,1.32-1.52,2.1l-2.01,3.12-.22.47-50.14,54.5c11.76-19.32,20.24-37.09,27.41-58.43,2.3-6.84,4.23-15.89,3.54-23.19-1.03-10.92-15.41-17.86-25.41-16.48-18.32,2.52-34.22,11.05-49.16,21.18-9.44,6.41-28.47,20.62-30.36,34.41-.13,2.86.46,5.7,1.73,8.27,1.76,3.87,5.05,6.21,9.32,5.99,1.91-.03,3.8-.39,5.58-1.07l1.49-.37c1.24-.51,1.57-1.39,1.61-2.59l-.39-.77-.49-.41c-.43-.28-1.86-.45-2.58-.47-1.83.03-3.66-.12-5.46-.46-4.53-.83-5.01-4.16-3.45-8.3,2.31-5.85,5.94-11.08,10.62-15.28,6.85-6.28,14.33-11.82,22.33-16.56,14.67-8.7,28.5-15.84,45.2-16.73,11.24-.6,14.53,8.89,12.48,18-1.93,8.46-4.77,16.69-8.45,24.55-10.32,22.11-21.77,43.67-34.29,64.61-.37.61-.49,1.61-.51,2.34.05,1.44.84,2.76,2.1,3.48,2.06,1.16,3.88,1,6.27.52l1.44-1.12,9.07-11.61,51.95-57.44.11-.08Z"/>
  <path class="cls-4" d="M526.01,845.57c-3.37,3.77-7.7,6.56-12.52,8.08-4.3,1.47-8.75,2.48-13.27,2.99,1.07-.96,21.68-19.18,26.88-15.3.98.73-.48,3.34-1.09,4.23ZM557.28,850.54c-.79-.27-1.65-.15-2.33.32l-.1.07c-2.49,1.99-2.99,2.35-6.01,3.47-2.23.95-4.58,1.57-6.99,1.85l-19.85.67c6.78-2.59,14.76-7.6,12-15.98-1.81-6.02-8.16-9.42-14.18-7.61-.03,0-.06.02-.08.03-18.61,5.99-44.12,30.61-43.72,51.66.17,8.95,12.6,15.85,20.41,14.95,4.67-.63,9.21-2.03,13.44-4.13,3.54-1.53,6.98-3.3,10.28-5.29l.12-.07.87-.74c.49-.45.66-1.06.78-1.7l-.27-1.1c-1.51-1.31-2.65-1.31-4.54-.56-3.53,1.72-7.19,3.17-10.95,4.33-3.88,1.22-7.86,2.08-11.89,2.56-3.36.42-8.22-.56-9.61-3.94-3.57-8.73,4.33-19.85,9.73-26.3l34.79-.32,13.16-.74c3.31-.42,6.51-1.46,9.45-3.05,2.24-1.19,7.37-4.24,6.93-6.76-.14-.76-.69-1.37-1.43-1.59Z"/>
  <path class="cls-4" d="M351.72,880.5c1.49-3.31,3.31-6.47,5.44-9.41,2.65-3.67,5.58-7.14,8.76-10.36,4.76-4.85,11.51-11.03,18.55-12.78,2.82-.66,5.78-.4,8.45.74.39.22,1.44,1.14,1.53,1.39-8.41,9.3-27.26,28.14-39.72,34.3-.58.29-2.21.88-2.82.26-.8-.81-.57-2.99-.19-4.13ZM434.15,830.16c-.8-.1-1.57-.35-2.28-.73-.11-.06-.19-.16-.22-.28l.13-.99c.14-.23.2-.22.44-.42,5.69-4.9,8.22-6.53,15.04-8.88l-8.16,11.9-4.95-.59ZM454.42,860.35l-7.27,2.28-7.09,1.53c-1.26.18-6.52.42-7.26.38l-1.24-1.73-.23-.45c8.55-6.76,14.29-9.62,23.75-14.22,2.55-1.24,7.79-2.92,10.02-1.73,1.91,1.02.81,4.81-.16,6.28-2.42,3.65-6.47,6.16-10.51,7.66ZM448.56,831.22c13.09-20.7,28.93-39.52,47.09-55.96,16.31-14.52,35.31-25.69,55.93-32.88,8.49-2.93,16.79-4.12,25.55-4.15,15.54-.06,35.02,4.78,45.85,15.86,8.79,8.99,5.24,22.24-3.06,29.6-8.69,7.71-16.83,12.97-27.4,17.81-34.03,15.6-66.52,24.76-104.7,28.51-14.08,1.34-24.43,1.51-39.26,1.19ZM451.23,895.54c4.52,3.45,9.15,6.77,13.86,9.95,10.92,7.56,23.1,13.11,35.97,16.38,2.89.72,15.8,3.3,18.9,2.13,4.45-1.69,8.24-7.18,10.11-11.3l-.54-1.75-.58-1c-1.65-.54-2.72-.52-3.86,1.21-1.05,2.3-2.86,4.17-5.13,5.29-4.56,2.17-9.35,2.19-14.11,1.12-12.69-2.86-28.41-12.38-39.81-20.76-11.1-8.16-21.26-16.81-29.97-27.45,8.26-.47,15.4-2.29,22.89-5.12,10.16-3.84,17.7-7.83,20.84-18.01.28-.9.45-2.91.33-3.82-.46-3.62-4.55-5.1-7.74-4.87-6.21.43-12.25,2.19-17.72,5.15-6.88,3.28-13.59,6.89-20.11,10.83,3.25-5.12,6.36-10.32,9.32-15.61l1.97-.59,9.98.13c48.25-.45,96.01-9.85,140.83-27.73,16.71-6.41,39.42-19.01,39.23-40.1-.1-11.06-7.7-20.35-16.7-25.94-12.34-7.66-26.86-10.69-41.23-10.57-52.3.43-97.61,39.06-126.52,79.44-6.74,1.31-22.44,5.81-26.34,12.62-1.55,2.72.45,5.99,2.38,7.84,3.39,3.26,4.75,3.04,8.54,3.47l-12.98,20.51c-3.33.09-5.8,3.41-5.09,6.64l.71,2.48-4.86,10.58-6.81,17.01c-.44,1.52.25,2.94.97,4.26.76,1.39,2.54,1.79,3.93,1.16.57-.36,1.01-.9,1.25-1.53l-.02.07,6.7-15.46c1.47-3.22,3.13-6.35,4.99-9.37,7.28,7.05,14.91,13.72,22.88,19.98-.11.07-.21.15-.3.24l-10.36,10.76c-6.19,6.14-22.92,18.71-34.04,21.99-5.66,1.67-15.08,2.96-20.64-.46-2.96-1.82-3.58-5.21-3.4-8.48.66-12.03,10.82-38.04,16.83-47.44l17.76-26.09c.28-1.7-1.39-4.18-3.45-4.14l-1.06.17-.91.41c-4.19,2.82-6.16,1.26-10.65.58l-4.44-.39c-2.58-.01-5.15.42-7.58,1.27-11.28,4.19-21.52,10.78-30,19.31-6.99,6.66-17.6,16.8-17.35,27.8.12,5.43,4.24,7.83,8.87,6.44l2.22-1.01c11.32-5.64,30.17-19.72,40.19-29.35-7.5,12.88-11.83,26.12-15.16,40.4-1.97,8.43-3.74,20.13,6.01,24.86h-.02s6.65,2.7,6.65,2.7c9.76,3.48,20.87.11,29.28-5.13,10.78-6.72,17.29-11.28,25.26-19.46,2-2.06,9.03-9.73,9.8-12.09l.02-.15Z"/>
  <path class="cls-4" d="M860.26,970.62c10.39-4.68,20.23-10.49,29.33-17.35,9.06-6.34,17.36-13.7,24.74-21.93,5.49-5.88,9.44-13.03,11.5-20.8.27-.98.23-2.03-.1-2.99-2.42-7.42-9.71-17.24-19.09-15.22l-6.82,2.54c-1.18.48-2.86,1.77-3.47,2.88-1.25,2.25,1.18,3.97,2.99,3.93,1.25-.22,2.46-.62,3.6-1.19,4.67-2.16,11.88-2.39,13.1,4.11.3,1.57.42,3.16.34,4.75-1.97,6.76-5.46,12.99-10.19,18.21-14.49,16.2-38.75,36.04-60.51,41.19-7.85,1.85-5.86,1.32-13.39,1.85-5.43.42-10.76-1.67-14.45-5.67-5.42-6.76-5.08-16.91-4.3-24.71,2.77-27.81,29.69-70.37,46.52-91.64,6.1-7.66,12.4-15.16,18.9-22.49.44-.51,2.53-1.54,3.6-1.73l53.98-2.3c3.24-.27,4.75-2.95,5.83-5.57l-2.61-1.18-51.91-.29-.21-.02.32-.42c10.95-11.78,22.7-22.78,35.18-32.93l9.95-7.04c3.88-2.65,8.23-4.53,12.81-5.55l1.8-.51,1.01-.71c.76-2,.45-3.79-1.95-4.47-2.02-.3-4.08-.09-6,.59l-15.15,4.66-2.16,1.17-25.36,22.63c-7.54,6.85-14.65,14.16-21.29,21.89-.2.22-.36.49-.46.77l-14.39.64c-2.31.27-5.41,1.15-4.87,4.24.49,2.77,4.18,3.9,6.31,4.71,1.87.71,2.55,2.06,1.64,3.85-.39.76-.82,1.08-1.43,1.66-6.98,7.8-13.5,16.01-19.53,24.56-6.92,9.85-13.32,20.05-19.18,30.56-6.25,10.88-11.65,22.23-16.16,33.94-5.04,12.82-10.61,36.8,1.65,48.13,6.56,6.06,15.21,9.34,24.06,9.21,8.92-.15,17.71-2.19,25.79-5.98Z"/>
  <path class="cls-4" d="M864.16,889.53c7.5-13.34,17.84-24.88,30.27-33.81l2.17-1.06.21.02c3.71-1.12,15.5-2.86,19.62-.06.5.34.52.88.31,1.38-1.74,4.75-4.62,9.01-8.38,12.4-8.31,7.63-18.36,14.97-28.68,20.24-3.94,2.01-11.86,4.8-15.93,4.14-.54-.09-.53-1.3-.32-1.88l.73-1.36ZM882.78,892.92c7.08-3.29,13.86-7.18,20.28-11.64,6.15-3.99,11.81-8.69,16.85-14.01,2.93-3,8.09-10.38,6.61-14.69,1.04-.55,6.23-.96,7.97-1.12,1.02-.5,1.87-.91,1.98-2.19.11-1.24-.99-2.09-2.09-2.29l-25.24-.78-5.46-2.43c-2.86-1.22-6.03-.93-8.81.23-1.52.62-2.95,1.42-4.27,2.39-.31.17-.95.33-1.34.32l-10.25.53c-1.84.27-3.63,1.6-3.48,3.61.17,2.21,2.94,3.46,4.57,4.32-5.94,5.57-24.66,24.23-24.86,35.97-.08,4.73,5.91,7.39,9.77,7.02,6.19-.67,12.21-2.44,17.78-5.23Z"/>
  <path class="cls-4" d="M981.89,1022.43c-15.33,6.97-29.23,4.06-35.48,1.88-8.89-3.09-17.5-10.45-21.56-19.02-1.9-4.21-2.74-8.83-2.44-13.44.61-8.39,3.7-16.4,8.87-23.03,6.91-8.83,15.22-16.47,24.59-22.61,21.61-14.21,45.58-24.46,70.79-30.28,17.47-4.08,33.24-6.71,51.07-7.14l-22.22,36.67c-5.01,8.26-10.43,16.28-16.23,24.01-5.12,6.83-10.53,13.43-16.23,19.79-11.79,13.25-24.91,25.62-41.15,33.17ZM1176.12,880.74c2.03-3.35,4.35-6.53,6.93-9.48,3.21-3.68,6.65-7.14,10.3-10.38,5.27-4.7,12.84-10.95,20.16-12.8,2.62-.63,5.38-.37,7.84.72l.98.87c.07.11.12.23.14.36l-.03.02c-7.49,7.33-15.37,14.25-23.6,20.75-6.46,5.11-13.35,9.65-20.59,13.58-.69.32-1.92.78-2.66.32l-.17-.41c-.14-1.23.11-2.47.69-3.55ZM1168.88,873.54c-9.02,10.5-8.45,16.94-6.54,19.62,2.29,3.22,6.54,1.94,9.34.64,11.22-5.19,32.24-19.1,42.92-28.32-5.3,7.56-9.91,15.58-13.75,23.98l-6.4,15.15c-2.96,7.21-7.17,19.92,2.21,25.09,12.3,6.77,24.55,4.22,35.52-2.32,4.54-2.51,8.96-5.24,13.23-8.18,4.86-3.38,9.46-7.11,13.77-11.17,2.16-2.02,9.82-9.62,10.84-11.94l.33-1.21-.04-.95-1.03-1.7-1.94.46-.8.49-11.32,10.76c-6.63,6.03-24.56,18.63-36.08,21.95-5.24,1.51-15.52,2.72-20-.44-2.71-1.9-2.48-5.43-1.89-8.27,2.56-12.2,16.81-38.42,23.75-47.5l20.75-25.95c.54-1.72-.88-4.36-3-4.33-.64,0-1.39.22-1.93.56-1.01.89-2.26,1.46-3.59,1.63-3.21.25-4.01-.63-6.6-1.07l-4.15-.41c-2.57-.01-5.13.41-7.55,1.25-11.81,4.31-22.7,10.81-32.11,19.15-2.67,2.11-5.24,4.34-7.72,6.67l-17.83,3.5c3.66-4.8,7.78-11.93,5.91-18.34-3.21-11-22.8-6.46-30.97-4.24l5.43-7.19,5.16-5.83,1.56-1.2c.73-1.63.98-4.04-1.92-4.04-2,0-7.96,2.55-9.11,3.63l-16.18,19.01-6.4,2.64c-1.95,1.01-2.84,1.82-3.84,3.56v2.09s.92,1.8.92,1.8l1.12,1.13-15.62,21.47-12.38,17.87c-20.14.26-39.74,3.13-59.28,7.41-27.22,5.97-50.64,15.16-73.74,30.63-16.57,11.1-29.85,26.72-30.96,47.35-1.39,25.72,18.6,45.45,43.25,45.08,28.34-.42,54.51-23.29,71.7-43.21,18.71-21.79,34.92-45.6,48.35-70.99l5.93-10.57c2-.02,9.76.37,12.88.88,1.91.31,3.23,1.82,2.96,3.65-.31,2.17-1.22,4.2-2.63,5.88-2.33,2.76-5,5.22-7.94,7.33l-1.17.77c-.81.65-1.48,1.53-1.48,2.61-.01,2.56,2.65,1.8,3.93,1.51l7.55-4.96c2.59-1.73,6.71-5.33,7.68-8.09l.45-2.05c.95-6.53-5.64-12.33-11.91-12.77l-7.18-.32c4.33-6.64,8.92-13.1,13.77-19.37l22.24-26.66c5.13-2.21,19.1-8.03,25.92-4.2,3.71,2.09,1.08,9.61-.8,12.82-1.77,2.98-3.99,5.67-6.57,7.99l-25.85,7.29c-2.62.72-9.91,2.92-12.29,4.19-1.55.83-1.81,2.92-1.65,4.39.3,2.72,3.12,3.25,5.23,3.14,13.08-.63,27.65-5.87,38.23-13.62l21.3-5.6Z"/>
  <path class="cls-4" d="M1073.18,856.77c7.54,8.97,2.62,17.14-.3,20-9.83,9.62-32.62,14.01-45.25,13.71-8.62-.2-11.81-.36-20.24-2.02-3.31-.65-7.04-2.86-9.09-5.7-3.84-5.34,9.35-11.54,14.08-13.31,21.73-8.11,38.51-10.08,60.81-12.69ZM1008.95,862.92c-3.57,1.19-6.99,2.8-10.19,4.8-1.76,1.11-3.34,2.48-4.68,4.07-4.23,4.91-3.69,12.32,1.22,16.55.1.09.2.17.31.26,3.08,2.46,6.66,4.23,10.48,5.19,19.08,5.22,39.72,3.28,58.36-2.75,4.96-1.55,9.58-4.04,13.6-7.35,8.32-6.87,10.05-18.41,5.33-27.74l12.5-.56c.78-.08,1.57-.25,2.24-.66,1.2-.72,1.28-2.57.17-3.41l-.85-.47c-2.43-.21-14.9-.07-18.03-.05l-16.33-19.36-12.05-13.62c-3.03-3.7-7.25-11-6.95-16.39.31-5.54,5.9-10.7,10.8-13.37,20.68-11.28,40.72-13.74,64.4-12.16,6.55.44,14.85,2.04,19.64,7.41,5.38,6.04,3.19,12,2.03,18.67l.2.8c.29.77.93,1.28,1.74,1.34,3.65.27,6.09-10.19,6.39-12.42.56-4.16-1.07-9.87-3.69-13.13-7.5-9.33-21.65-9.09-32.29-9.43-20.99-.67-75.63,7.77-77.3,31.62-.55,7.82,4.23,15.36,9.19,21.22l23.96,29.37c-20.2,1.55-40.94,5.05-60.19,11.57Z"/>
  <path class="cls-4" d="M1355.79,833.22c-.24.35-.39.77-.42,1.2-.22,2.04.72,2.35,2.08,2.98l1.64.02,1.24-.94,15.93-20.22c1.05-1.48.99-4.34-.77-5.55l-1.69-.82-1.99-.22-2.01.41c-1.83,1.86-12.24,20.11-14,23.14Z"/>
  <path class="cls-4" d="M1371.31,835.24c-.06.81.3,1.59.96,2.05l.18.13c1.61.86,2.71.79,3.91-.58l15.65-20.05c.38-.61.58-1.15.69-1.85.48-3.16-2.7-5.17-5.39-4.77l-1.91.46c-1.71,1.78-12.4,21.01-14.04,23.92l-.05.68Z"/>
  <g>
    <path class="cls-2" d="M1948.84,656.91c-7.01,3.05-13.34,5.92-19.01,8.59-5.67,2.67-13.08,5.48-22.25,8.4-7.77,2.42-16.21,4.5-25.31,6.21-9.11,1.72-19.14,2.58-30.09,2.58-20.63,0-39.38-2.9-56.25-8.7-16.88-5.79-31.55-14.86-44.03-27.22-12.22-12.09-21.78-27.47-28.65-46.13-6.88-18.65-10.32-40.33-10.32-65.04,0-23.43,3.31-44.38,9.93-62.85,6.62-18.46,16.17-34.06,28.65-46.8,12.1-12.35,26.71-21.78,43.84-28.27,17.13-6.5,36.13-9.75,57.02-9.75,15.28,0,30.53,1.85,45.75,5.54,15.22,3.69,32.12,10.19,50.72,19.48v44.89h-2.86c-15.66-13.11-31.2-22.66-46.61-28.65-15.41-5.98-31.9-8.98-49.47-8.98-14.39,0-27.35,2.33-38.87,6.97-11.52,4.65-21.81,11.88-30.85,21.68-8.79,9.55-15.63,21.62-20.53,36.2-4.9,14.58-7.35,31.43-7.35,50.53s2.71,37.19,8.12,51.57c5.41,14.39,12.38,26.11,20.92,35.15,8.91,9.42,19.32,16.41,31.23,20.92,11.9,4.52,24.48,6.78,37.73,6.78,18.21,0,35.27-3.12,51.19-9.36,15.92-6.24,30.81-15.59,44.7-28.08h2.67v44.32Z"/>
    <path class="cls-2" d="M2165.26,677.53h-35.72v-22.73c-3.19,2.17-7.49,5.19-12.89,9.08-5.42,3.89-10.67,6.97-15.76,9.27-5.99,2.93-12.86,5.38-20.63,7.35-7.77,1.98-16.87,2.96-27.31,2.96-19.23,0-35.53-6.36-48.9-19.1-13.37-12.73-20.06-28.97-20.06-48.71,0-16.16,3.47-29.25,10.41-39.24,6.94-10,16.84-17.87,29.7-23.6,12.99-5.73,28.59-9.61,46.8-11.65s37.76-3.56,58.64-4.59v-5.54c0-8.14-1.43-14.9-4.3-20.25-2.86-5.35-6.97-9.55-12.32-12.6-5.09-2.93-11.2-4.9-18.34-5.92-7.13-1.02-14.58-1.53-22.35-1.53-9.42,0-19.93,1.24-31.52,3.72-11.59,2.48-23.56,6.09-35.91,10.79h-1.91v-36.48c7-1.91,17.13-4.01,30.37-6.3,13.24-2.29,26.29-3.44,39.16-3.44,15.02,0,28.11,1.24,39.25,3.73,11.15,2.48,20.79,6.72,28.94,12.7,8.02,5.86,14.14,13.44,18.34,22.73,4.2,9.3,6.3,20.82,6.3,34.57v144.79ZM2129.54,625v-59.4c-10.96.63-23.85,1.59-38.68,2.86-14.84,1.27-26.59,3.12-35.24,5.54-10.31,2.93-18.66,7.48-25.02,13.66-6.37,6.18-9.55,14.68-9.55,25.5,0,12.22,3.69,21.42,11.08,27.6,7.39,6.18,18.65,9.27,33.81,9.27,12.61,0,24.13-2.45,34.57-7.36,10.44-4.9,20.12-10.79,29.04-17.67Z"/>
    <path class="cls-2" d="M2386.84,616.03c0,19.48-8.06,35.46-24.17,47.94s-38.11,18.72-65.99,18.72c-15.79,0-30.28-1.88-43.46-5.63-13.18-3.76-24.23-7.87-33.14-12.32v-40.31h1.91c11.33,8.53,23.94,15.31,37.82,20.34,13.88,5.03,27.19,7.54,39.92,7.54,15.79,0,28.15-2.54,37.06-7.63,8.91-5.1,13.37-13.12,13.37-24.07,0-8.4-2.42-14.77-7.26-19.1-4.84-4.33-14.14-8.02-27.89-11.08-5.1-1.15-11.75-2.48-19.96-4.01-8.21-1.53-15.69-3.18-22.44-4.97-18.72-4.96-31.99-12.26-39.82-21.87-7.83-9.61-11.75-21.42-11.75-35.43,0-8.79,1.82-17.06,5.44-24.83,3.63-7.77,9.14-14.7,16.53-20.82,7.13-5.99,16.2-10.73,27.22-14.23,11.01-3.5,23.33-5.25,36.96-5.25,12.74,0,25.63,1.56,38.68,4.68,13.05,3.12,23.91,6.91,32.57,11.37v38.39h-1.91c-9.17-6.74-20.31-12.45-33.43-17.09-13.11-4.65-25.98-6.97-38.59-6.97s-24.2,2.52-33.24,7.54c-9.04,5.03-13.56,12.51-13.56,22.44,0,8.79,2.74,15.41,8.21,19.86,5.35,4.46,14.01,8.1,25.98,10.89,6.62,1.53,14.04,3.05,22.25,4.59,8.21,1.53,15.06,2.93,20.53,4.2,16.68,3.81,29.54,10.37,38.59,19.67,9.04,9.42,13.56,21.9,13.56,37.44Z"/>
    <path class="cls-2" d="M2604.03,677.53h-35.72v-22.73c-3.19,2.17-7.49,5.19-12.89,9.08-5.42,3.89-10.67,6.97-15.76,9.27-5.99,2.93-12.86,5.38-20.63,7.35-7.77,1.98-16.87,2.96-27.31,2.96-19.23,0-35.53-6.36-48.9-19.1-13.37-12.73-20.06-28.97-20.06-48.71,0-16.16,3.47-29.25,10.41-39.24,6.94-10,16.84-17.87,29.7-23.6,12.99-5.73,28.59-9.61,46.8-11.65s37.76-3.56,58.64-4.59v-5.54c0-8.14-1.43-14.9-4.3-20.25-2.86-5.35-6.97-9.55-12.32-12.6-5.09-2.93-11.2-4.9-18.34-5.92-7.13-1.02-14.58-1.53-22.35-1.53-9.42,0-19.93,1.24-31.52,3.72-11.59,2.48-23.56,6.09-35.91,10.79h-1.91v-36.48c7-1.91,17.13-4.01,30.37-6.3,13.24-2.29,26.29-3.44,39.16-3.44,15.02,0,28.11,1.24,39.25,3.73,11.15,2.48,20.8,6.72,28.95,12.7,8.02,5.86,14.13,13.44,18.34,22.73,4.19,9.3,6.3,20.82,6.3,34.57v144.79ZM2568.3,625v-59.4c-10.96.63-23.85,1.59-38.68,2.86-14.84,1.27-26.59,3.12-35.24,5.54-10.31,2.93-18.66,7.48-25.02,13.66-6.37,6.18-9.55,14.68-9.55,25.5,0,12.22,3.69,21.42,11.08,27.6,7.39,6.18,18.65,9.27,33.81,9.27,12.61,0,24.13-2.45,34.57-7.36,10.44-4.9,20.12-10.79,29.04-17.67Z"/>
    <path class="cls-2" d="M2825.59,616.03c0,19.48-8.06,35.46-24.15,47.94-16.12,12.48-38.12,18.72-66,18.72-15.79,0-30.27-1.88-43.46-5.63-13.18-3.76-24.23-7.87-33.15-12.32v-40.31h1.92c11.33,8.53,23.93,15.31,37.82,20.34,13.88,5.03,27.19,7.54,39.92,7.54,15.79,0,28.15-2.54,37.05-7.63,8.92-5.1,13.37-13.12,13.37-24.07,0-8.4-2.42-14.77-7.25-19.1-4.84-4.33-14.13-8.02-27.89-11.08-5.09-1.15-11.74-2.48-19.95-4.01-8.21-1.53-15.7-3.18-22.45-4.97-18.72-4.96-31.99-12.26-39.82-21.87s-11.75-21.42-11.75-35.43c0-8.79,1.82-17.06,5.44-24.83,3.63-7.77,9.14-14.7,16.52-20.82,7.14-5.99,16.21-10.73,27.22-14.23,11.01-3.5,23.33-5.25,36.97-5.25,12.73,0,25.62,1.56,38.68,4.68,13.06,3.12,23.91,6.91,32.57,11.37v38.39h-1.91c-9.17-6.74-20.31-12.45-33.43-17.09-13.12-4.65-25.98-6.97-38.58-6.97s-24.2,2.52-33.24,7.54c-9.04,5.03-13.56,12.51-13.56,22.44,0,8.79,2.74,15.41,8.21,19.86,5.35,4.46,14,8.1,25.98,10.89,6.62,1.53,14.05,3.05,22.26,4.59,8.21,1.53,15.06,2.93,20.53,4.2,16.68,3.81,29.54,10.37,38.58,19.67,9.04,9.42,13.56,21.9,13.56,37.44Z"/>
    <path class="cls-3" d="M3204.76,677.53h-187.38v-284.42h187.38v33.62h-149.56v77.93h149.56v33.62h-149.56v105.63h149.56v33.62Z"/>
    <path class="cls-3" d="M3414.3,616.03c0,19.48-8.06,35.46-24.15,47.94-16.12,12.48-38.12,18.72-66,18.72-15.79,0-30.27-1.88-43.46-5.63-13.18-3.76-24.23-7.87-33.15-12.32v-40.31h1.92c11.33,8.53,23.93,15.31,37.82,20.34,13.88,5.03,27.19,7.54,39.92,7.54,15.79,0,28.15-2.54,37.05-7.63,8.92-5.1,13.37-13.12,13.37-24.07,0-8.4-2.42-14.77-7.25-19.1-4.84-4.33-14.13-8.02-27.89-11.08-5.09-1.15-11.74-2.48-19.95-4.01-8.21-1.53-15.7-3.18-22.45-4.97-18.72-4.96-31.99-12.26-39.82-21.87-7.83-9.61-11.75-21.42-11.75-35.43,0-8.79,1.82-17.06,5.44-24.83,3.63-7.77,9.14-14.7,16.52-20.82,7.14-5.99,16.21-10.73,27.22-14.23s23.33-5.25,36.97-5.25c12.73,0,25.62,1.56,38.68,4.68,13.06,3.12,23.91,6.91,32.57,11.37v38.39h-1.91c-9.17-6.74-20.31-12.45-33.43-17.09-13.12-4.65-25.98-6.97-38.58-6.97s-24.2,2.52-33.24,7.54c-9.04,5.03-13.56,12.51-13.56,22.44,0,8.79,2.74,15.41,8.21,19.86,5.35,4.46,14,8.1,25.98,10.89,6.62,1.53,14.05,3.05,22.26,4.59,8.21,1.53,15.06,2.93,20.53,4.2,16.68,3.81,29.54,10.37,38.58,19.67,9.04,9.42,13.56,21.9,13.56,37.44Z"/>
    <path class="cls-3" d="M3653.45,568.28c0,17.31-2.47,33.14-7.44,47.46-4.97,14.33-11.97,26.46-21.02,36.39-8.4,9.42-18.3,16.72-29.7,21.87-11.39,5.16-23.46,7.74-36.19,7.74-11.08,0-21.11-1.21-30.08-3.63-8.98-2.41-18.12-6.17-27.42-11.27v89.4h-35.91v-292.06h35.91v22.35c9.56-8.02,20.28-14.74,32.19-20.15,11.91-5.41,24.61-8.12,38.11-8.12,25.72,0,45.75,9.71,60.08,29.13,14.32,19.42,21.48,46.39,21.48,80.9ZM3616.39,569.23c0-25.72-4.39-44.95-13.18-57.69-8.78-12.73-22.28-19.1-40.49-19.1-10.32,0-20.7,2.23-31.14,6.69-10.45,4.46-20.44,10.31-30,17.57v120.92c10.19,4.58,18.94,7.7,26.27,9.35,7.32,1.66,15.63,2.48,24.92,2.48,20,0,35.59-6.75,46.8-20.25,11.2-13.49,16.81-33.48,16.81-59.98Z"/>
    <path class="cls-3" d="M3875.22,677.53h-35.72v-22.73c-3.19,2.17-7.49,5.19-12.9,9.08-5.41,3.89-10.67,6.97-15.75,9.27-5.99,2.93-12.87,5.38-20.63,7.35-7.77,1.98-16.88,2.96-27.32,2.96-19.23,0-35.53-6.36-48.9-19.1-13.36-12.73-20.05-28.97-20.05-48.71,0-16.16,3.46-29.25,10.4-39.24,6.94-10,16.85-17.87,29.7-23.6,12.99-5.73,28.59-9.61,46.8-11.65,18.21-2.04,37.75-3.56,58.64-4.59v-5.54c0-8.14-1.43-14.9-4.3-20.25-2.86-5.35-6.97-9.55-12.32-12.6-5.1-2.93-11.21-4.9-18.34-5.92-7.13-1.02-14.58-1.53-22.34-1.53-9.42,0-19.93,1.24-31.53,3.72-11.58,2.48-23.55,6.09-35.91,10.79h-1.91v-36.48c7-1.91,17.12-4.01,30.37-6.3,13.25-2.29,26.29-3.44,39.16-3.44,15.03,0,28.1,1.24,39.25,3.73,11.14,2.48,20.79,6.72,28.94,12.7,8.02,5.86,14.13,13.44,18.34,22.73,4.2,9.3,6.3,20.82,6.3,34.57v144.79ZM3839.5,625v-59.4c-10.95.63-23.85,1.59-38.69,2.86-14.84,1.27-26.58,3.12-35.24,5.54-10.31,2.93-18.65,7.48-25.02,13.66-6.37,6.18-9.55,14.68-9.55,25.5,0,12.22,3.7,21.42,11.08,27.6,7.38,6.18,18.66,9.27,33.81,9.27,12.6,0,24.13-2.45,34.57-7.36,10.45-4.9,20.12-10.79,29.04-17.67Z"/>
    <path class="cls-3" d="M4122.77,677.53h-35.91v-121.48c0-9.81-.57-19.01-1.72-27.61-1.15-8.59-3.25-15.31-6.31-20.15-3.18-5.35-7.77-9.33-13.75-11.94-5.99-2.61-13.75-3.92-23.3-3.92s-20.06,2.42-30.76,7.26c-10.7,4.84-20.94,11.01-30.76,18.53v159.31h-35.91v-213.36h35.91v23.69c11.21-9.3,22.8-16.55,34.77-21.78,11.97-5.22,24.26-7.83,36.86-7.83,23.05,0,40.62,6.94,52.72,20.82,12.1,13.88,18.14,33.87,18.14,59.98v138.48Z"/>
    <path class="cls-3" d="M4230.5,428.45h-40.49v-37.25h40.49v37.25ZM4228.21,677.53h-35.92v-213.36h35.92v213.36Z"/>
    <path class="cls-3" d="M4465.06,677.53h-35.72v-22.73c-3.19,2.17-7.49,5.19-12.9,9.08-5.41,3.89-10.67,6.97-15.75,9.27-5.99,2.93-12.87,5.38-20.63,7.35-7.77,1.98-16.88,2.96-27.32,2.96-19.23,0-35.53-6.36-48.9-19.1-13.36-12.73-20.05-28.97-20.05-48.71,0-16.16,3.46-29.25,10.4-39.24,6.94-10,16.85-17.87,29.7-23.6,12.99-5.73,28.59-9.61,46.8-11.65,18.21-2.04,37.75-3.56,58.64-4.59v-5.54c0-8.14-1.43-14.9-4.3-20.25s-6.97-9.55-12.32-12.6c-5.1-2.93-11.21-4.9-18.34-5.92-7.13-1.02-14.58-1.53-22.34-1.53-9.42,0-19.93,1.24-31.53,3.72-11.58,2.48-23.55,6.09-35.91,10.79h-1.91v-36.48c7-1.91,17.12-4.01,30.37-6.3,13.25-2.29,26.29-3.44,39.16-3.44,15.03,0,28.1,1.24,39.25,3.73,11.14,2.48,20.79,6.72,28.94,12.7,8.02,5.86,14.13,13.44,18.34,22.73,4.2,9.3,6.3,20.82,6.3,34.57v144.79ZM4429.35,625v-59.4c-10.95.63-23.85,1.59-38.69,2.86-14.84,1.27-26.58,3.12-35.24,5.54-10.31,2.93-18.65,7.48-25.02,13.66-6.37,6.18-9.55,14.68-9.55,25.5,0,12.22,3.7,21.42,11.08,27.6,7.38,6.18,18.66,9.27,33.81,9.27,12.6,0,24.13-2.45,34.57-7.36,10.45-4.9,20.12-10.79,29.04-17.67Z"/>
  </g>
  <g>
    <path class="cls-2" d="M4788.95,623.83c0,7.33-1.71,14.57-5.12,21.73-3.41,7.16-8.19,13.23-14.34,18.2-6.74,5.39-14.59,9.6-23.57,12.64-8.97,3.03-19.77,4.55-32.41,4.55-13.56,0-25.76-1.26-36.58-3.79-10.82-2.53-21.84-6.28-33.04-11.25v-31.34h1.77c9.52,7.92,20.51,14.03,32.98,18.32,12.47,4.3,24.18,6.44,35.13,6.44,15.5,0,27.57-2.91,36.2-8.72,8.63-5.81,12.95-13.56,12.95-23.25,0-8.34-2.04-14.49-6.13-18.45-4.09-3.96-10.3-7.03-18.64-9.22-6.32-1.68-13.16-3.07-20.53-4.17-7.37-1.1-15.18-2.48-23.44-4.17-16.68-3.54-29.04-9.58-37.09-18.13-8.04-8.55-12.07-19.69-12.07-33.42,0-15.75,6.65-28.66,19.96-38.73,13.31-10.07,30.2-15.1,50.67-15.1,13.23,0,25.36,1.26,36.39,3.79,11.03,2.53,20.81,5.64,29.31,9.35v29.57h-1.77c-7.16-6.07-16.57-11.1-28.24-15.1-11.67-4-23.61-6-35.82-6-13.39,0-24.15,2.78-32.28,8.34-8.13,5.56-12.19,12.72-12.19,21.48,0,7.83,2.02,13.98,6.07,18.45s11.16,7.88,21.35,10.23c5.39,1.18,13.06,2.61,23,4.3,9.94,1.68,18.36,3.41,25.27,5.18,13.98,3.71,24.51,9.31,31.59,16.81s10.61,17.98,10.61,31.46Z"/>
    <path class="cls-2" d="M4863.5,677.53h-30.2v-36.01h30.2v36.01Z"/>
    <path class="cls-2" d="M5039.77,677.53h-119.03v-188.14h25.02v165.9h94.01v22.24Z"/>
  </g>
</svg>