<svg xmlns="http://www.w3.org/2000/svg" width="148.975" height="76.035" viewBox="0 0 148.975 76.035">
    <g data-name="Grupo 3881">
        <g data-name="Grupo 3876">
            <path data-name="Trazado 7197" d="M43.911 66.933c-.356.227 20.538-10.128 57.112-1.125s38.543 9.285 52.611 8.3 39.247-13.223 39.247-13.223-20.257 10.269-44.734 9.566-44.732-10.271-64.426-10.974-33.2 3.236-39.81 7.455" transform="translate(-43.907 1.54)" style="fill:#0901ac"/>
            <path data-name="Rectángulo 2129" transform="translate(74.487 49.945)" style="fill:#ffb12b" d="M0 0h5.181v7.583H0z"/>
            <path data-name="Rectángulo 2130" transform="translate(88.603 49.945)" style="fill:#ffb12b" d="M0 0h5.181v7.583H0z"/>
            <path data-name="Trazado 7198" d="M177.588 61.812c0 1.016-.021 2.021-.072 3.016a101.467 101.467 0 0 1-10.085 2.431V55.513h4.976l-10.259-6.4-6.607-10.659h-41.376L102.9 47.89v4.473h5.93v9.757c-8.659-2.083-16.948-3.878-25.289-4.176a117.338 117.338 0 0 0-4.647-.092 95.017 95.017 0 0 0-23.8 2.708C55.738 26.992 82.9 0 116.33 0c33.825 0 61.258 27.669 61.258 61.812" transform="translate(-43.617)" style="fill:#f36c2c"/>
            <path data-name="Trazado 7199" d="M156.92 65.737h-5.841V55.3a2.92 2.92 0 0 1 5.841 0z" transform="translate(-41.128 1.358)" style="fill:#ffb12b"/>
            <path data-name="Trazado 7200" d="M98.821 12.48s-.1-.172-.283-.457a1.067 1.067 0 0 1 .283.457" transform="translate(-42.49 .312)" style="fill:#0901ac"/>
            <path data-name="Trazado 7201" d="M76.977 18.681s-4.19-6.135-12.492.39c0 0 2.091-11.457 11.463-4.958l3.065 3.411a8.2 8.2 0 0 0-8.235-6.879s6.422-5.177 8.934 3.943a9.1 9.1 0 0 1 .73-6.4c2.632-4.655 8.1-4.486 8.1-4.486a22.43 22.43 0 0 0-6.27 9.829 17.668 17.668 0 0 0-.236 3.043l.486-1.254C90.746.5 97.93 9.961 99.421 12.239c-.622-.658-2.569-1.687-8.553-.659a11.451 11.451 0 0 0-4.8 2.653 16.7 16.7 0 0 0-2.655 3.219C95.394 7.5 98.38 23.077 98.38 23.077c-3.148-4.522-7.883-5.16-11.637-4.762-.59.064-1.155.152-1.688.255a17.138 17.138 0 0 0-1.812 1.662c3.308-.8 9.1-.71 9.77 9.3 0 0-6.252-6.6-10.325-8.175.889.806 1.919 3.207.629 10.351 0 0-2.813-1.359-1.792-9.226-5.965 26.754-2.119 38.989-2.049 39.39l-7.457-.5c-.069-.4-3.438-10 7.381-39.248l-8.381 6.622s-.089-5.657 7.267-7.939c0 0-7.666-.737-12.389 5.431 0 0-.015-11.787 11.081-7.563" transform="translate(-43.373 .096)" style="fill:#0901ac"/>
            <path data-name="Trazado 7202" d="M88.326 25.02c-9.717 20.474-3.448 36-3.421 36.345l-6.242-.99c-.026-.351-1.73-14.889 8.147-35.754" transform="translate(-43.009 .638)" style="fill:#0901ac"/>
            <path data-name="Trazado 7203" d="M78.225 13.191s.136-.062.38-.15a.793.793 0 0 0-.38.15" transform="translate(-43.017 .338)" style="fill:#0901ac"/>
            <path data-name="Trazado 7204" d="M90.605 26.971s5.366-1.848 8 5.808c0 0 3.539-7.873-5.369-8.116l-3.465.7s3.423-3.643 8.329-.493c0 0-1.98-6-7.527-1.6a6.334 6.334 0 0 0 2.262-4.2c.273-3.993-3.374-6.331-3.374-6.331a16.271 16.271 0 0 1-.111 8.751 12.254 12.254 0 0 1-1.15 1.95l.22-.977c.976-12.648-7.772-10.12-9.723-9.4.688-.121 2.4.124 5.872 3.415a9.073 9.073 0 0 1 2 3.747 12.26 12.26 0 0 1 .356 3.134c-3.566-11.368-12.186-3.268-12.186-3.268 3.994-1.335 7.361.391 9.644 2.306.359.3.69.607.994.907a12.787 12.787 0 0 1 .472 1.816c-1.821-1.957-5.641-4.487-10.368 1.276 0 0 6.912-1.209 10.249-.347-.926.092-2.627 1.087-4.843 5.989 0 0 2.42.431 5.122-4.789 0 0-.873 15.074 1.541.734l2.641 7.75s2.482-3.388-1.349-8.05c0 0 5.326 2.973 5.771 8.816 0 0 5.058-7.133-4-9.524" transform="translate(-43.107 .321)" style="fill:#0901ac"/>
        </g>
    </g>
</svg>
